<svg version="1.1" viewBox="0 0 2000 2000" width="500" height="500" xmlns="http://www.w3.org/2000/svg">

<path transform="translate(455,579)" d="m0 0h65l23 2 34 6 25 6 20 6 31 12 29 14 19 10 24 15 28 21 13 11 15 14 23 23 20 25 13 18 10 15 12 21 11 21 10 23 10 27 8 28 6 28 3 18 1 10 1 27v28l-1 37-3 24-6 31-8 29-11 30-13 28-11 21-15 24-13 19-10 13-9 12-7 7-7 8-15 15-11 9-10 9-14 11-19 14-24 15-18 10-16 8-26 12-25 9-23 7-27 6-28 4-20 1h-59l-25-1-36-6-28-7-24-8-22-9-30-14-18-10-24-15-17-12-11-9-16-13-15-14-24-24-11-14-14-18-17-26-12-21-8-16-10-21-8-20-9-29-7-29-4-23-2-18-1-30v-27l1-31 4-30 6-28 8-28 7-20 10-24 8-17 12-22 15-24 9-12 13-17 12-14 14-16h2l2-4h2l2-4 4-4h2l2-4 8-7 10-9 16-12 17-12 19-12 18-10 23-11 15-7 30-11 28-8 43-8z" fill="#DBDCDC" data-index="1" style="visibility: visible; opacity: 1;"></path>
<path transform="translate(486,595)" d="m0 0h31l24 2 30 5 36 9 31 11 18 8 25 12 14 8 24 15 18 14 13 10 13 12 10 9 13 13 7 8 9 10 13 17 12 17 14 23 10 18 13 28 10 27 7 24 7 30 5 36 1 16v51l-4 35-5 26-6 23-7 23-9 22-8 18-10 19-9 16-12 19-12 16-10 12-6 7-7 4-3-3-7 1-4 4-3 10v8l-3 5-4 1v-21l-2-6-2-1h-7l-7 1-3-1-1 34h5v-21l1-6 2-1h8l1 2v27l-12 11-17 13-18 13-18 11-15 9-23 11-16 7-21 8-19 5-5 1h-216l-15-3-20-7-20-8-25-12-15-8-21-13-14-10-17-13-14-12-10-9-12-11-7-8-10-11-9-11-11-14-12-17-5-9v-2h4l6 7 4 2v-2l4 1v2l9 3 15 6 17 3 17 1 13-1 20-6 8-4 6-4 4-2 3-2h3v-2l9-7 6-1 7 5v2h2l3 5v2l4 2 4 10 3 5 6 5 4 4 8 4 4-1 3-3 9-5 9-6 17-8 16-6 18-6 18-4 13-2 29-1 19 1 19 3 16 4 14 4 22 11 15 8 2 1v2l5 2 6 3 6 2 2 1 9-1 5-4 5-5 5-6 4-2 16 2 10 4 3-1h39l10-1h45l13-2 8-3 21-8 10-6 13-11 3-1v-2h2v-2l5-5h2v-3l5-4 5-6 4-1 2-5 4-5 1-4h2l1-6 4-10 1-4h2l-1-3 1-2 2-19 1-6-3-24-2-9-3-9-3-8-6-11v-2h-2l-5-9-9-11-5-5-2-4h-2v-2l-4-2-5-5-7-4v-2l-5-2-13-6-13-4-13-3-12-2-11-3-4-5-3-10-2-12-4-11-3-2 1-4 3-3 3-2h4l1-3 14-7 10-6 7-4h2v-2l14-8 17-11 5-6h2l2-4 8-6 3-4h2l2-4h2l2-4 2-3 2-9-7-1-8 4-5 4-10 5-5 7v2l-9 7-3 1v2l-11 4-2 5-3-1 1 3-3 1-3-1-1 4h-4l-4 4-6 2h-2l-3 3h-3l-1 2-3 1-4 3-11 4-7 1-1 2v-2h-2v3l-4 1-7 3-2-1-1 2h-4l-1 2h-4l-2 1v-2l-4 3-1-1-1 2-4-2 1-2h3v-2l26-8 19-8 14-6 23-13 16-11 14-11 5-4 3-4h2l1-4-59 22-36 12-41 12-39 9-47 8-55 6-22 1-3-3-10-20-12-20-10-14-11-13-7-7-13-10-14-8-16-7-16-3h-34l-17 3-19 5-4-1 1-2h5l1-3 1 2h2v-2l5-2v-3h8l-1-2h5l2-1 3 1v-2l4 1 3 1v-3l3 1 1-1h11l7-1 24 3 14 4 15 7 18 11 9 8 7 8 9 10 11 16 4 8 10 18 7 11 3 2 9 1 31-3 21-2 8-2 16-2 6-2 15-2 7-2 15-2 4-2 16-4 6-1 19-5 7-1h4v-2l4 1v-2l9-2 2-1 2 1v-2h5l9-4 12-4 5-1h3v-2l18-5 7-2h3l1-3 17-6 5-2 7-4 10-6 4-3h2l-1-6-8-4h-9l-4 5-2 1-15 2-20 8-12 4-8 4-11 3-8 3-13 5-16 3-11 4-18 5-11 2-6-1-2 1 4 2-18 5h-7l-7 2-6 2-28 4-15 1-12 2-14 1-14 2h-8l-7-3-5-4-2-6h-2l-7-14-4-7-3-4v-2h-2l-9-14-9-10-5-4-5-5-8-5v-2l-5-2-8-5-10-6-16-6-12-3-7-1h-46l-3-2 2-4 8-6h2v-2l11-8 11-7h2v-2l4-2 1-2 5-1v-2l8-4 10-7 7-5h3v-2l5-3 6-5 12-8 11-8 3-3 9-5h2v-2l6-4h2v-2h2l4-12-1-7-8-12-1-3-5-2-1-1h-10l-10 4-12 6-5 3-9 3-6 4-6 3-5 3-10 4-7 4-9 7-10 6-7 4-7 3-6 3-16 10-13 8-8 5-9 6-12 7-5 4h-2v2l-11 7-5 4-18 13-5 4-5 5-11 9-9 7-10 9-8 7-3 3h-2l-1 3-8 7-4 2h-4v2l-3 3h-2l1 6-3-1-1 6-9 10-3 5h-2l-2 5-2 4h-2l-1 4h-2l-2 4-7 10-3 4-1 3-2 1-7 14-4 7-6 15-2 3-4 13-2 6-1 1-2 4-1-1-2 8h-2l-2 14h-3l-1-2v-37l4-31 5-24 8-30 11-31 9-20 8-17 16-27 10-15 10-14 11-14 14-15 9-10 13-13 8-7 13-11 15-10 16-8 40-15 23-8 28-10 33-11 69-21 22-5z" fill="#FCFCFC" data-index="2" style="visibility: visible; opacity: 1;"></path>
<path transform="translate(455,579)" d="m0 0h65l23 2 34 6 25 6 20 6 31 12 29 14 19 10 24 15 28 21 13 11 15 14 23 23 20 25 13 18 10 15 12 21 11 21 10 23 10 27 8 28 6 28 3 18 1 10 1 27v28l-1 37-3 24-6 31-8 29-11 30-13 28-11 21-15 24-13 19-10 13-9 12-7 7-7 8-15 15-11 9-10 9-14 11-19 14-24 15-18 10-16 8-26 12-25 9-23 7-27 6-28 4-20 1h-59l-25-1-36-6-28-7-24-8-22-9-30-14-18-10-24-15-17-12-11-9-16-13-15-14-24-24-11-14-14-18-17-26-12-21-8-16-10-21-8-20-9-29-7-29-4-23-2-18-1-30v-27l1-31 4-30 6-28 8-28 7-20 10-24 8-17 12-22 15-24 9-12 13-17 12-14 14-16h2l2-4h2l2-4 4-4h2l2-4 8-7 10-9 16-12 17-12 19-12 18-10 23-11 15-7 30-11 28-8 43-8zm31 16-17 3-20 5-45 14-39 12-37 13-13 5-20 7-37 14-16 9-16 12-12 11-10 9-13 13-7 8-11 12-9 12-13 18-13 21-12 21-13 28-11 30-7 24-6 25-5 33-2 24v49l4 34 4 22 7 28 11 33 10 24 8 16 10 19 8 13 10 16 10 13 11 14 10 11 7 8 11 12 8 7 12 11 11 9 21 16 14 9 25 15 26 13 25 10 20 7 15 3h216l17-4 20-7 20-8 19-9 20-11 18-11 17-12 13-10 11-9 9-8v-27l-1-2h-8l-2 1-1 6v21h-5l1-34 8 1 2-1h7l3 3 1 4v21l5-2 2-5v-7l3-10 4-4 7-1 4 3 9-7 13-16 10-13 12-19 11-19 8-15 12-26 8-21 10-34 6-29 4-30 1-11v-51l-2-24-5-33-10-40-10-28-9-21-11-23-13-22-14-21-14-19-11-12-7-8-9-10-13-13-8-7-10-9-20-15-15-11-15-9-17-10-33-16-35-13-29-8-23-5-28-4-16-1z" fill="#034DB5" data-index="3" style="visibility: visible; opacity: 1;"></path>
<path transform="translate(1277,921)" d="m0 0h60l2 2v61l-3 127v50l3 7 6 3 11-1 7-1-1 5-12 12-15 11-10 6-12 3h-6l-6-4-7-8-7-14v-5l-8 6-9 7-17 9-14 5-14 3-10 1h-11l-17-2 10 3v1l-8-1-16-8-10-8-7-7-8-13-6-18-2-11-1-11v-10l2-18 4-16 6-14 10-15 11-12 12-10 16-10 21-10 30-10 26-6h2l-3-68v-10z" fill="#221653" data-index="4" style="visibility: visible; opacity: 1;"></path>
<path transform="translate(1485,996)" d="m0 0h11l13 3 10 6 8 10 4 8 1 9-1 3 8-7 7-7 13-10 17-9 12-4 13-2h10l14 3 9 6 8 9 3 6 3 17v41l-3 66-1 29v28h1l1-15 2-2v12l-1 9-38-1-10-5-1-4-6-120-2-16-4-10-2-4-8-4h-14l-13 5-15 10-1 2-3 65-2 61v19h2v-16l2-4v13l-1 10-11-1-25-1-10-5-1-4-6-122-2-13-4-10-1-3-4-2-4-3-3-1h-14l-12 5-14 9-1 1-1 10-4 113-1 23h-26l-15-2-3-3-1-13-3-68-5-110v-5l58-1 1 1 1 29 10-9 13-10 17-9 12-4z" fill="#211553" data-index="5" style="visibility: visible; opacity: 1;"></path>
<path transform="translate(1027,913)" d="m0 0h5l6 9 8 19 13 33 12 31 11 27 6 16 20 50 5 12 6 15 5 13 6 13 6 16 8 20 2 4v5h2v4l-23 3-9 1h-9l-5-5-14-29-13-28-9-19-4-1h-11l1-2 11-1-2-4-78 14-57 10-5 3-14 24-9 15-11 18-4 5h-4l1-7 20-57 12-34 10-30 15-43 18-52 14-40 6-18 2-2z" fill="#221553" data-index="6" style="visibility: visible; opacity: 1;"></path>
<path transform="translate(697,960)" d="m0 0h2l6 21-1 2-25 7-15 6-16 8-11 7-14 12-10 11-9 14-6 14-4 14-1 9v13l3 17 6 16 7 13 9 12 13 13 14 10 16 9 21 10 16 10v3l-28 2h-14l-14-3-6-3-10-8-11-9-18-14-10-8-13-11-22-18-39-36-24-22-3-2h-8l-13 5h-2l4 10 16 28 7 12-1 5-19 11h-4l-6-10-13-25-12-22-13-24-10-18-2-1-2 13-6 21-4 7-2 2-6-1-16-10-13-10-5-2 4 42v13l-3 16-5 12-7 11-10 10-11 7-5 1 2-8 8-25 3-15 1-8v-26l-3-18-6-17-8-16-10-16-9-11-11-12-12-12 2-4 9-9 7-5 5 1v2l4 2 9 10 23 23 8 7 12 10 20 14 9 4 9 1 3-1 2-5 1-3v-15l-5-21-10-27v-4l20-4h8l6 4 7 7 8 7 12 11 10 9 8 7 10 9 11 9 13 12 10 9 11 9 15 14 11 10 10 8 7 6 1-3 3-27 4-18 6-17 8-14 9-12 9-10 14-11 11-7 16-8 20-8 24-7z" fill="#D1261F" data-index="7" style="visibility: visible; opacity: 1;"></path>
<path transform="translate(246,853)" d="m0 0v3l-1 6 1 5 9-2 10-5 2 1-5 5-17 12-13 10-11 9h-2l-3 6-1 13 5-2 13-10 20-13 15-9 23-12 22-8 13-3 17-2h16l21 3 11 4 14 7 15 11 13 12 11 13 7 10 10 15 16 31 1 1h13l40-3 25-3 69-13 33-7 8-1-1 3-9 3-7 3-2-1v2l-5-1v2l-5-1-1 2-11 2-2 1-3-1-1 2-10 2-7 2-6 1-5 1h-9v2l-6-1-1 2-2-1-2 2h-6l-7 1-4-1h-8v2l-14 2-5-1-1-1-7 1-1 4-4-1v2l-7 1-3 5 4 1 2 1v2l4 1 11 8v2l6 2 6 5v2h2v2l4 2 2 2 3 2v2h2v2l4 2 4 6 4 2v2h2l7 8 2 3-3 5-9-1-7-5-1-2-1 1 6 5 5 5v5l-3 9h-2v3l2 1h-2l1 3-2 14v3h-2l-2 4-5-1-1 2-8-6-4-1 3 5 12 10 5 2 3 3 2-16 2-9h1l-1 15-1 12-2 4-21-18-13-12-10-9-11-9-17-16-11-9-11-10-8-7-11-10-8-7-13-12-8-7-5-4-2-1h-8l-14 3h-6l7 20 6 18 3 14v15l-3 6-4 2-10-1-8-4v-3l-2-1h7l6 2 4-4v-8l-3-1-3-7 1-5v-3l-3-2v-6l-2-6v-11l-3-9-2-2v-8l19-4h4l-3-7-9-2h-6v1h-10l-3-1h-3v-2l-5-1-10 1-8-2v2h-10l-2-1-1 2v-2l-6-1 3-2h42l33 5 22 5 29 9 32 13 29 14 18 10 15 9 14 9-7-8-14-12-15-12-15-10-16-10-8-4-9-4-7-6-27-12-30-10-29-7-27-4-13-1h-36l-32 3-27 5-30 7-12 4v3l16 21 4 5 7-1 21-8 19-6 29-6h9l1 2-4 1 3 3-15 2h-12l-2-1-8 2-1 2-5-1-28 10-2 2h-3l-1 2h-2l-4 4-5-6v-2l-4-1-2-3-5-2 3-2h-4l-3-3v-2h-2l-12-15h-4l-1-7 1-9 10-20 10-15 12-16 12-14 9-10 3-3z" fill="#DBDCDC" data-index="8" style="visibility: visible;"></path>
<path transform="translate(1899,996)" d="m0 0h13l14 3 9 5 9 9 7 13 1 32-3 81-1 35v22l2 3v7l-5-1-30-1-8-2-6-3-1-2-6-121-2-18-3-9-5-6-5-2h-16l-16 4-13 5-13 7-1 1-1 12-6 134h2l2-35 2 1-1 36-10-1-28-1-12-4-1-3-9-186v-10l62-1 1 3v21l-1 12 2-1 1-3 1-23h3l-1 21 8-6 17-12 16-8 18-6z" fill="#211553" data-index="9" style="visibility: visible; opacity: 1;"></path>
<path transform="translate(725,1034)" d="m0 0h21l16 3 10 4 11 6 12 10 8 10 6 10 6 16 2 8v22l-5 19-8 16-9 11-7 7-10 7-12 6-15 4-5 1h-20l-16-4-16-8-11-8-11-11-9-14-5-12-2-9-1-19 3-19 7-16 8-11 9-10 14-10 11-5 10-3z" fill="#FCFCFC" data-index="10" style="visibility: visible; opacity: 1;"></path>
<path transform="translate(205,1034)" d="m0 0h25l15 3 13 6 11 7 11 11 9 14 5 11 4 18v18l-4 18-6 14-9 12-10 10-10 7-14 7-17 4h-21l-15-4-10-4-11-7-12-11-7-8-8-14-4-12-2-10v-21l3-14 5-13 7-11 9-10 9-8 12-7 15-5z" fill="#FCFCFC" data-index="11" style="visibility: visible;"></path>
<path transform="translate(350,829)" d="m0 0h34l16 3 16 7 11 6 12 9 12 11 9 10 12 17 14 24 8 16v2l24-1 55-6 47-8 43-10 40-12 36-12 56-21 2 1-5 5-4 5-14 11-14 10-15 9-16 9-16 7-21 8-27 8-25 6-45 9-34 6-21 3-32 3-17 1h-13l-5-8-13-25-8-12-10-14-12-14-12-11-15-10-16-8-18-4-10-1h-16l-22 3-17 5-19 8-21 11-22 14-17 12-6 5h-4v-13l4-6 14-11 16-12 24-16 23-12 11-5 22-8 13-3z" fill="#221653" data-index="12" style="visibility: visible; opacity: 1;"></path>
<path transform="translate(1731 1e3)" d="m0 0 5 1 1 12-7 150-1 29-1 10 3-3 2-26h1v19l-1 13-40-1-10-4-1-5-6-118-3-65v-11z" fill="#211453" data-index="13" style="visibility: visible; opacity: 1;"></path>
<path transform="translate(443,700)" d="m0 0 2 1-11 8-11 7-10 7-18 12-17 12-19 13-14 10-38 28-17 14-11 9-13 12-8 7-5 5h-2v2l-17 17-9 11-10 12-9 13-10 16-9 19-6 18-3 17-1 7-6 4-35 13-15 5h-3l2-11 7-22 7-18 12-22 9-14 10-14 14-17 11-12 23-23 11-9 15-13 14-11 21-16 19-13 15-10 32-19 10-6 23-13 23-12 22-12z" fill="#231753" data-index="14" style="visibility: visible;"></path>
<path transform="translate(1277,1019)" d="m0 0h2l1 4-4 3-16 8-12 7-4 2v2l-6 2v2h-2v3l7-4 10-7 7-4 17-10h3l1 2 3 61 2 44v18l-21 9-18 5-15 2h-10l-9-2-6-4-7-9-5-13-1-7v-19l3-17 6-15 6-11 10-13 12-12 16-11 18-10z" fill="#FCFCFC" data-index="15" style="visibility: visible; opacity: 1;"></path>
<path transform="translate(205,1034)" d="m0 0h25l15 3 13 6 11 7 11 11 9 14 5 11 4 18v18l-4 18-6 14-9 12-10 10-10 7-14 7-17 4h-21l-15-4-10-4-11-7-12-11-7-8-8-14-4-12-2-10v-21l3-14 5-13 7-11 9-10 9-8 12-7 15-5zm11 22-8 2-11 1-12 5-6 4v2l-4 2-5 5-7 9-2 7h-2v5l3 1 1-1-2 3-1 5-1 2v8l-3-1 2 13h1v-8l6 19 1 3h2v4h2l2 5 15 15h4l3 3 14 4 12 1 18-4 9-5 7-3 2-4h3l7-12 4-11 4-14 1-19-3-12-6-12-10-10h-3l-1-3h-3l-1-3-9-3-8-2z" fill="#DBDCDC" data-index="16" style="visibility: visible;"></path>
<path transform="translate(725,1034)" d="m0 0h21l16 3 10 4 11 6 12 10 8 10 6 10 6 16 2 8v22l-5 19-8 16-9 11-7 7-10 7-12 6-15 4-5 1h-20l-16-4-16-8-11-8-11-11-9-14-5-12-2-9-1-19 3-19 7-16 8-11 9-10 14-10 11-5 10-3zm7 22-17 3-12 3-9 5v2l-4 2-5 5v2h-2l-5 8-3 11-2 22 1 11 6 15 3 5h2v2l7 6 5 2v2l3 1h2l3 1 1 2 1-3 2 3 2-1 1 3 4 1v-2l10 3 11 1 13-2-2 2 5-1 10-4 11-7 7-9 6-14 3-11 1-7v-15l-2-13-6-12h-2l-1-4-9-6-4-3h-2v-2l-5-3-9-3z" fill="#DBDCDC" data-index="17" style="visibility: visible; opacity: 1;"></path>
<path transform="translate(204,1018)" d="m0 0h29l19 5 16 8 9 6 10 9 8 9 8 13 6 14 4 13 2 15v9l-4 20-7 19-9 14-12 13-10 8-14 8-15 6-9 2-9 1h-16l-18-3-16-6-13-8-11-9-8-8-9-13-8-17-4-14-1-6v-23l3-15 6-17 7-12 8-10 11-11 14-9 13-6 14-4zm1 16-14 3-10 4-11 7-10 9-8 9-8 14-5 16-1 7v21l4 17 8 16 8 10 9 9 10 7 12 6 13 4 5 1h21l17-4 16-8 11-9 9-9 9-14 5-13 3-15v-18l-4-18-8-16-8-11-9-9-12-8-12-5-15-3z" fill="#241854" data-index="18" style="visibility: visible;"></path>
<path transform="translate(723,1018)" d="m0 0h28l17 4 14 6 12 8 13 11 9 11 7 12 7 18 2 16v23l-3 15-7 16-7 12-10 12-14 11-10 6-15 7-12 3-9 1h-16l-15-2-12-5-13-7-15-9-10-9-8-10-9-16-5-15-2-11v-22l2-14 5-15 6-12 9-12 11-11 13-9 16-8 15-4zm2 16-12 2-13 5-14 9-10 9-9 12-8 16-3 13-1 17 2 16 5 14 7 12 11 12 9 8 14 8 13 5 10 2h20l17-4 10-4 11-7 12-11 8-10 8-16 5-19v-22l-5-16-4-9-7-12-7-8-11-9-12-7-12-4-13-2z" fill="#241953" data-index="19" style="visibility: visible; opacity: 1;"></path>
<path transform="translate(322,955)" d="m0 0h43l33 5 22 5 23 7-2 2 16 6 11 5 10 4 11 9 10 4 13 4 3 2v2h3v2h5l5 5 5 2 5 4 5 1 7 7v3l4 2 9 7v6l-3 9h-2v3l2 1h-2l1 3-2 14v3h-2l-2 4-5-1-1 2-8-6-4-1 3 5 12 10 5 2 3 3 2-16 2-9h1l-1 15-1 12-2 4-21-18-13-12-10-9-11-9-17-16-11-9-11-10-8-7-11-10-8-7-13-12-8-7-5-4-2-1h-8l-14 3h-6l7 20 6 18 3 14v15l-3 6-4 2-10-1-8-4v-3l-2-1h7l6 2 4-4v-8l-3-1-3-7 1-5v-3l-3-2v-6l-2-6v-11l-3-9-2-2v-8l19-4h4l-3-7-9-2h-6v1h-10l-3-1h-3v-2l-5-1-10 1-8-2v2h-10l-2-1-1 2v-2l-6-1z" fill="#DBDBDC" data-index="20" style="visibility: visible; opacity: 1;"></path>
<path transform="translate(304,928)" d="m0 0h36l29 3 24 5 26 7 25 9 22 10 10 8 12 5 12 7 12 8 14 10 11 9 15 13 5 5v2l-5-2-17-11-29-16-27-13-33-13-26-8-22-5-33-5-9-1h-40l-22 3-28 6-26 9-12 5h-5l-7-8-14-19-1-3 18-6 30-7 30-5z" fill="#231653" data-index="21" style="visibility: visible;"></path>
<path transform="translate(246,853)" d="m0 0v3l-1 6 1 5 9-2 10-5 2 1-5 5-17 12-13 10-11 9h-2l-3 6-1 13 5-2 13-10 20-13 15-9 17-9h5l-4 3-12 6h-2l-2 5h-2l-2 4-15 10-5 3h-3v2l-11 8-8 3-2-1-2 4-7 4-5-1v-10l-4 2-4 9-6 10-1 6 2 2 6 1 15-5 10-2h2l9-4 14-3 25-4 10-2 16-2h31l34 4 11 3 1 3 2-1 3-1 9 1 17 5v2l3-1 19 6 8 4 4 4 4 1 7-1 7 3-1-8-4-7-4-6v-2l-4-2-4-5-5-9-4-4-3-5-3-3-6-7-7-7-11-9-6-4-5-6 4-1 12 7 10 8 12 11 11 13 7 10 10 15 16 31 1 1h13l40-3 25-3 69-13 33-7 8-1-1 3-9 3-7 3-2-1v2l-5-1v2l-5-1-1 2-11 2-2 1-3-1-1 2-10 2-7 2-6 1-5 1h-9v2l-6-1-1 2-2-1-2 2h-6l-7 1-4-1h-8v2l-14 2-5-1-1-1-7 1-1 4-4-1v2l-7 1-3 5 4 1 2 1v2l4 1 11 8v2l6 2 6 5v2h2v2l4 2 2 2 3 2v2h2v2l4 2 4 6 4 2v2h2l7 8 2 3-3 5-9-1-7-5-1-2h-3l-7-8-6-2-7-5-5-2-2-4h-5v-2h-3v-2l-18-6-9-4-8-6v-2l-6-2-16-6-13-6-6-2v-1h7l28 11 24 11 25 13 17 10 17 11-7-8-14-12-15-12-15-10-16-10-8-4-9-4-7-6-27-12-30-10-29-7-27-4-13-1h-36l-32 3-27 5-30 7-12 4v3l16 21 4 5 7-1 21-8 19-6 29-6h9l1 2-4 1 3 3-15 2h-12l-2-1-8 2-1 2-5-1-28 10-2 2h-3l-1 2h-2l-4 4-5-6v-2l-4-1-2-3-5-2 3-2h-4l-3-3v-2h-2l-12-15h-4l-1-7 1-9 10-20 10-15 12-16 12-14 9-10 3-3z" fill="#F8F7F7" data-index="22" style="visibility: visible; opacity: 1;"></path>
<path transform="translate(1e3 992)" d="m0 0 2 2 1 5-3 2v4l2 1 1-6 5 5 19 41 17 36 9 20v2h-9l-84-13-13-3 1-5 9-15 14-25 10-18 13-23z" fill="#FCFCFC" data-index="23" style="visibility: visible;"></path>
<path transform="translate(731,1074)" d="m0 0h10l17 5 5 2 5 5v2l5 10 2 18v8l-3 9-6 7-10 8-11 3-7 1h-14l-9-4-4-2v-2h-2v-2h-2v-3l-4-2-6-7-3-1-1-5 1-2h-2v-17h2l-1-4 3-7 2-2 1-3 4-3 3-3 15-7z" fill="#DBDCDC" data-index="24" style="visibility: visible; opacity: 1;"></path>
<path transform="translate(208,1073)" d="m0 0 1 2 5-1 2 1 1-2 1 1 10 2 9 4 8 6h3l2 7 2 2 3 11 1 3v17h-2l-1 6-6 8-12 8-9 3-7 1h-11l-5-2-6-3-3-1v-2l-8-9-2-5h-2l-6-15v-7l4-11 2-5-3-1 3-4 1 1 1-3 1-1 4-5h5l2-4 4 1z" fill="#DBDCDC" data-index="25" style="visibility: visible;"></path>
<path transform="translate(438,1162)" d="m0 0h23l23 3 25 6 20 8 16 8 14 8 16 11 13 10 5 6-6-2-13-8-16-8-20-8-19-6-17-4-20-3h-42l-22 4-28 8-25 11-19 10-10 6-4-1-10-16 2-4 26-14 19-9 24-8 22-5 12-2z" fill="#231753" data-index="26" style="visibility: visible; opacity: 1;"></path>
<path transform="translate(1029,732)" d="m0 0h7l5 1v78l-1 1h-13l-1-1-1-46-9 25-8 21-2 1h-10l-3-5-8-23-7-19-1 37-1 10h-12l-2-1v-75l1-3h19l4 8 11 35 4 10v3h2l3-10 15-45 1-1z" fill="#646668" data-index="27" style="visibility: visible;"></path>
<path transform="translate(460,1155)" d="m0 0h2v2l2-1 10 1 12 3 10 2 2 1v2l3-1 4 3 2-1 13 4 10 3 12 6 5 1v2h5l4 3 1 2 5 1 4 3 4 2 5 5 5 3 3 4 5 3 1 3 4 1 13 12-1 4-5 5-4-2-9-6-5-3-12-6v-2l-4-1-5-3-6-2-9-4-3-2-6-2-10-1v-2l-13-2v-2h-8l-21-4-17-1h-21l-25 4-12 3-21 7-20 9-20 11-5 3-5 1v3l-7 1-7-8-3-4v-2l-3-1-5-7-1-8 11-4 9-7v-2l4 1 1-2 10-4 1-2 9-2 9-4 4-1 1-2 10-4 6-1 4-2 5-1 6-2 23-4 15-1zm-22 7-17 2-24 5-19 6-16 6-22 11-17 10-1 3 10 16 4 1 21-12 21-10 18-7 27-7 17-3h42l26 4 25 7 28 11 22 12 8 5 2-1-7-7-18-13-19-12-15-8-25-10-25-6-23-3z" fill="#F9F9F9" data-index="28" style="visibility: visible; opacity: 1;"></path>
<path transform="translate(218,1013)" d="m0 0 1 2h3v-2h6v3l7-1 6-1 9 2 18 6 10 4 12 11 8 9 2 3v3l2 1 4 7 2 2 4 9 3 3 3 12 1 9 2 6v12l1 3-2 17-1 7-4 14-3 5-2 1-2 6h-2v3h-2l-2 6-9 10-9 8-5 4h-2v2l-19 10-11 4-17 2-6 1h-14l-16-3-9-2-7-3-10-5-1-2h-3l-2-2-1-2-4-1v-2l-5-2-8-7-6-7v-3l-4-2v-2l-3-1-4-8-5-9-4-9-3-11v-23l2-13 4-16 5-1 1-5-3 1 2-4 3-2 1 6-5 16-2 11v23l3 14 5 13 8 15 9 11 7 7 14 10 14 7 13 4 14 2h16l14-2 17-6 13-7 13-10 7-7 9-12 6-12 6-17 3-17v-9l-2-15-7-21-7-13-9-12-9-9-10-7-15-8-17-5-5-1h-29l-17 4-8 3-4-1 5-2 1-3 7-3 7-1 23-1z" fill="#F9F9F9" data-index="29" style="visibility: visible;"></path>
<path transform="translate(246,853)" d="m0 0v3l-1 6 1 5 9-2 10-5 2 1-5 5-17 12-13 10-11 9h-2l-3 6-1 13 5-2 13-10 20-13 15-9 17-9h5l-4 3-12 6h-2l-2 5h-2l-2 4-15 10-5 3h-3v2l-11 8-8 3-2-1-2 4-7 4-5-1v-10l-4 2-4 9-6 10-1 6 2 2 6 1 15-5 10-2h2l9-4 14-3 25-4 10-2 16-2h31l34 4 11 3 1 3 3 1v1l-13-1-29-3h-36l-32 3-27 5-30 7-12 4v3l16 21 4 5 7-1 21-8 19-6 29-6h9l1 2-4 1 3 3-15 2h-12l-2-1-8 2-1 2-5-1-28 10-2 2h-3l-1 2h-2l-4 4-5-6v-2l-4-1-2-3-5-2 3-2h-4l-3-3v-2h-2l-12-15h-4l-1-7 1-9 10-20 10-15 12-16 12-14 9-10 3-3zm136 78 2 1z" fill="#F9F8F8" data-index="30" style="visibility: visible;"></path>
<path transform="translate(370,821)" d="m0 0 25 3 14 4 15 7 18 11 9 8 7 8 9 10 11 16 4 8 10 18 7 11 3 2 9 1 31-3 21-2 8-2 16-2 6-2 15-2 7-2 15-2 4-2 16-4 6-1 19-5 7-1h4v-2l4 1v-2l9-2 2-1 2 1v-2h5l9-4 12-4 5-1h3v-2l18-5 7-2 4-2 5 1v2l-35 13-36 12-41 12-39 9-47 8-55 6-22 1-3-3-10-20-12-20-10-14-11-13-7-7-13-10-14-8-16-7-16-3h-34l-17 3-19 5-4-1 1-2h5l1-3 1 2h2v-2l5-2v-3h8l-1-2h5l2-1 3 1v-2l4 1 3 1v-3l3 1 1-1h11z" fill="#F8F8F8" data-index="31" style="visibility: visible; opacity: 1;"></path>
<path transform="translate(1668,916)" d="m0 0 37 6 44 8 4 2-3 5-9 10-7 6-6 7-6 5-7 8-8 7-8 8-4-1-4-8-16-41-7-19z" fill="#221653" data-index="32" style="visibility: visible;"></path>
<path transform="translate(1329,732)" d="m0 0h13l4 4 19 56 6 17v2l-2 1h-14l-3-8-3-7-1-1-28-1-3 10-2 6-3 1h-12l1-8 12-36 10-29 2-6z" fill="#646668" data-index="33" style="visibility: visible; opacity: 1;"></path>
<path transform="translate(1188,751)" d="m0 0h18l6 3 7 8 4 12v15l-4 10-7 8-5 4-7 2h-11l-11-4-5-4-5-8-2-7v-14l3-10 6-8 6-5z" fill="#646669" data-index="34" style="visibility: visible;"></path>
<path transform="translate(342,881)" d="m0 0 30 1 4 2 5 1 7 3 9 5 1 3 3 2h4l7 5v2l4 2 2 4 4 2 4 3 2 4v3l-10-1-16-5-31-7-12-3-14-3h-36l-30 4-8-1v-4l16-8 14-6 13-3 6-2 13-2z" fill="#FCFCFC" data-index="35" style="visibility: visible;"></path>
<path transform="translate(1089,751)" d="m0 0h6l9 6 6 10 2 9v13l-2 8-4 6-8 7-8 3h-11l-9-3-8-6-5-9-1-5v-15l3-10 4-6 7-6 3-1h15z" fill="#656769" data-index="36" style="visibility: visible;"></path>
<path transform="translate(1521,751)" d="m0 0 9 1 7 6 5 10 1 3v21l-5 10-7 7-10 4h-9l-9-2-9-6-5-8-2-9v-9l3-12 5-8 7-6 3-1h14l2 1z" fill="#636669" data-index="37" style="visibility: visible; opacity: 1;"></path>
<path transform="translate(410,1050)" d="m0 0 3 1 14 26 7 12v2l-5-1-8-7-6-1 6 3 8 10 1 4-4-1 3 10 4 12 1 5-4-3-2-9-4-6-2-7-6-8v-4h-2l1 4 3 6 2 6 2 5 1 3h-3l-5-8-7 1-3 4-6 2h-7l-9-3-4 2-1 16-1 5-2 13-3 4v-7l1-7-1-3-1 11-2-3-4 3 1-6-2-1-1 8-4 3h-2l1 4-5 4-3 3 2-6 4-10 3-16v-13l-4-42 2-1 10 6 10 8 13 8 6 1 4-5 6-19z" fill="#DBD6D7" data-index="38" style="visibility: visible; opacity: 1;"></path>
<path transform="translate(448,690)" d="m0 0h5l5 4-1 5-9 8-39 26-7 4-16 10-9 7-8 6-4 2-9 6h-3l-1 3-5 3h-2l-2 4-9 6h-3l-2 4-8 7-11 9h-3l-1 3-3 1-8 8-3 1-5 5-3 1-6 4-3 1h-3l-1 3-1-3 11-10 11-9 16-13 19-14 36-26 24-16 15-11 20-13 10-7 12-8-20 9-42 22-22 12-19 11-28 17-19 12-18 13-19 14-9 7-6 1 4-6 2-1-1-2 4-1h3l4-2v-4l3-3 5-3 8-4 3-1 2-4 10-7 8-7 9-6h4l1-3 9-4 9-5 5-3 5-1 2-4h3v-2l10-6 22-12 24-14 11-5 7-1v-2l16-8z" fill="#F8F7F8" data-index="39" style="visibility: visible;"></path>
<path transform="translate(1611,731)" d="m0 0h9l9 2 9 6 5 7 1 6-3 3-5 4h-3l-6-7-6-3h-12l-6 4-4 5-3 8v14l4 10 3 4 9 2h7l8-3 5-6 3-4 9 3 1 1v8l-4 7-8 7-7 3-5 1h-10l-9-2-8-4-7-7-5-10-2-9v-17l3-11 3-6 6-8 10-6z" fill="#646668" data-index="40" style="visibility: visible;"></path>
<path transform="translate(1778,751)" d="m0 0h19l8 5 3 3 3 9v16l-1 2-10 1h-26l3 7 5 2h9l8-3 3-2 5 1 3 3-1 6-7 8-10 4h-11l-9-3-9-8-4-8-1-5v-13l4-11 4-6 7-6z" fill="#646669" data-index="41" style="visibility: visible; opacity: 1;"></path>
<path transform="translate(270,1056)" d="m0 0h5l8 9 8 14 4 11 3 14v18l-4 18-6 14-9 12-10 10-10 7-14 7-17 4h-21l-15-4-10-4-11-7-12-11-7-8-8-14-4-12-2-10v-21l3-14 5-13 4-4 9-12 5 1-7 12-7 13-3 12-1 12-1 10-1 2h2l2 12 5 12 4 7 3 3 2 4 2 1 1 2 3 1v3h2l1 2 3 1 1 2 3 1 1 2 8 4 14 5 14 3h9l14-3 15-6 5-3 5-2 14-14 6-9 4-10 3-16 1-17-4-14-1-4v-2l-2-1-3-6 1-4h-3l-1-4 1-2-2-1-3-5h-4l-1-6z" fill="#F8F8F8" data-index="42" style="visibility: visible;"></path>
<path transform="translate(1676,750)" d="m0 0h5l-2 1v2h6v-2l7 1 5 5 3 9v30l6 1 1 1v11l-3 3h-9l-5-3-2-5h-3l-2 4-6 4-10 1-7-2-6-7-2-7v-7l3-6 7-6 11-4 8-2h4l-1-4-2-1h-8l-10 3-3 2h-3l-4-7 2-6 8-6z" fill="#646668" data-index="43" style="visibility: visible; opacity: 1;"></path>
<path transform="translate(382,1390)" d="m0 0h213l-4 2-12 4-34 6-34 3h-54l-28-3-30-5-17-6z" fill="#271B55" data-index="44" style="visibility: visible; opacity: 1;"></path>
<path transform="translate(725,1034)" d="m0 0h21l16 3 3 1 1 4-14-1-17-1-11 1-6 2h-7v2h-3l-1 2h-2l-4 3-1-1-5 5h-4v3h-3v2l-6 5-1 2h-2l-2 4-3 3-7 15-2 9-1 3-1 19 1 1 1 9 6 16 4 5 3 5 4 6 5 5 5 4 3 3 5 4 9 4h3v2l3-1 13 4 6 1h14l14-4 14-7h2v-2l11-1-1 3-10 7-12 6-15 4-5 1h-20l-16-4-16-8-11-8-11-11-9-14-5-12-2-9-1-19 3-19 7-16 8-11 9-10 14-10 11-5 10-3z" fill="#F8F8F8" data-index="45" style="visibility: visible; opacity: 1;"></path>
<path transform="translate(653,1058)" d="m0 0h3l-2 5-7 14-4 13-2 14v22l3 15 6 15 9 15 11 12 9 6 19 11 13 6 9 2 9 1h16l15-2 15-6 15-8 11-9 5-4 10-13 1-2h5l-1 7h-2v3h-2l-2 4h-2v2l-4 2-1 3-8 6-9 8h-2v2l-24 10-11 2-13 1h-21l-6-2h-7l-2 2-13 2h-42l-8-2-9-4-11-8-2-5 16 8 9 4 11 2h14l28-1v-3l-5-2-15-9-21-10-4-4-4-2v-2h-2l1-5 6 5 1 2h2l-3-12-4-5-2-6-4-2-2-4 1-3-4-9-3-9-2-3-1-8v-20l2-7v-4l2-1v-6l2-3 1-4 3-6 4-4 3-6 2 1z" fill="#F8F8F8" data-index="46" style="visibility: visible; opacity: 1;"></path>
<path transform="translate(333,962)" d="m0 0h21v2l1-2h4v2l7-1h3l1 8 5-1-1 3-4 1v2l3 1v5l3 1 1 6 2 4v11l2 9 1 4 1-2 1 3v3l-1 5 3 7 2 1 1 8-3 4-1 2-4-2-8-1 1 3 11 4h6l3-1v2l-3 2-9-1-12-6-18-13-14-12-13-12-3-4 4 2 6 5h3l-2-6-6-5v-2l-4-2-8-7-10-10v-1l7 1 2 5 5 1v-2l-3-3h3l5 4 6 4v2h2v2l7 2v2l3 1 4 3 3 1 2 4 2-2v2l4 2 3 3h-3l7 6 5 5 2 3 5 4 5 1v-5l-1-4h-2l-2-10 2-3-4-1-6-11-4-13-4-9 2-2 4 6-1-5-6-3h-10l-3-2-7 1v-1h-10l-2-1-1 2h-3v-3l10-1h13l4-1-2-2-3 3-3-1v-2l-9-1z" fill="#DBD6D7" data-index="47" style="visibility: visible;"></path>
<path transform="translate(1379,752)" d="m0 0h15l1 26v18h14l4-2 1-6 1-36h15l1 2v53l-1 4-5 1h-8l-2-7h-2l-5 6-7 2h-8l-7-3-5-6-2-7z" fill="#656769" data-index="48" style="visibility: visible; opacity: 1;"></path>
<path transform="translate(322,955)" d="m0 0h43l33 5 22 5 23 7-2 2 16 6 11 5 10 4 11 9v2l-6-1-8-4-15-7-1-2-7-1-1-3-4-1-9-4-10-1-3 1v8l-15-10h-8l-14 3h-6l7 20 6 18 3 14v15l-3 6-4 2-10-1-8-4v-3l-2-1h7l6 2 4-4v-8l-3-1-3-7 1-5v-3l-3-2v-6l-2-6v-11l-3-9-2-2v-8l19-4h4l-3-7-9-2h-6v1h-10l-3-1h-3v-2l-5-1-10 1-8-2v2h-10l-2-1-1 2v-2l-6-1z" fill="#DCDCDC" data-index="49" style="visibility: visible; opacity: 1;"></path>
<path transform="translate(84,1010)" d="m0 0 3 4 3 8 2-1 1-2 5 5 5 3 8-1 8-3 11-5 14-5 9-1 1 2-5 5-13 11h-2v2l-16 14-2 4h-2l-1 4h-2l-2 7-3 3-3 10-2 3-3-2-2 12-2 5h-2l-5-25-4-30v-25z" fill="#FBFBFB" data-index="50" style="visibility: visible;"></path>
<path transform="translate(1061,1114)" d="m0 0 2 1 1 4-4 1-8 1h13l-1 2-37 7-63 11-31 5-5 3-13 23-16 28-5 8-1 3-4 1-2-1 3-10 1-3-1-2-2 1 2-5 7-11 9-15 14-24 3-3 19-4 53-9z" fill="#DAD6D7" data-index="51" style="visibility: visible;"></path>
<path transform="translate(1339,923)" d="m0 0 2 4 5 3v72l-3 120-1 48-5-3-2-6v-50l3-127z" fill="#DBD6D7" data-index="52" style="visibility: visible;"></path>
<path transform="translate(671,996)" d="m0 0h3l-1 2v1l12-3h7l4 3-5 2-1 3-4 1-6 1-1 2-5 3h-2l-1 3-13 4-5 3-6-1 1-6 2-2-4 4-1 5 5 1-3 3-10 7-9 8-10 16-6 14-2 6-1 6v19l3 12 2 1-1 5 3 1-1 4-5-2v-4l-2-1-2-4-2 1-1 3-2-4-1-6v-29l4-17 5-12 4-7 3-3 7-8h2l2-4 5-5h2v-2h2v-2l8-6 5-4h2v-2l4-2h3l1-3 7-2z" fill="#DBD6D7" data-index="53" style="visibility: visible; opacity: 1;"></path>
<path transform="translate(1135,739)" d="m0 0h7l1 5v9l7 1 9 1v7l-2 4-2 1h-12l1 29h12l2 2 1 11-4 3-4 1h-10l-7-3-4-5-3-9-1-30h-7l-1-2v-10l4-3h2v3h2l1-12 2-2z" fill="#656769" data-index="54" style="visibility: visible;"></path>
<path transform="translate(1459,738)" d="m0 0 4 1 1 14h10l5 1v13h-16l1 30 14-1 1 4 1 3v7l-3 2-6 1h-8l-8-3-5-6-2-11v-26h-6l-2-1v-14l2-1h6v-9l7-3z" fill="#656769" data-index="55" style="visibility: visible;"></path>
<path transform="translate(446 1e3)" d="m0 0 4 2 4 3v2l4 2 4 3v2l4 2 10 9 11 9 5 4 4 4 6 4 5 5v2l4 2 3 2v2h2l-2-8 5-1 2 4h2l1 4 3 1 1 4h3l-1-3 5-1v2h7l1-2h3l2-5h2v-3h2l-1-3h2l-3-7-4-5-1-1-2 1-2-1 1-5-6-3-2 1 1 2-4-2-4-3v-2l-3-1 1-4-3-2v-3l5 2 10 6v3l9 1 9 7 8 6v6l-3 9h-2v3l2 1h-2l1 3-2 14v3h-2l-2 4-5-1-1 2-8-6-4-1 3 5 12 10 5 2 3 3 2-16 2-9h1l-1 15-1 12-2 4-21-18-13-12-10-9-11-9-17-16-11-9-11-10-8-7-11-10z" fill="#DBD6D7" data-index="56" style="visibility: visible; opacity: 1;"></path>
<path transform="translate(1736 1e3)" d="m0 0 1 3 7 1v19l-2 48-3 52-2 45-2 29-1 4h-7v-1h6v-18l-1 12-2 3h-2l1-39 7-151z" fill="#DAD6D7" data-index="57" style="visibility: visible;"></path>
<path transform="translate(478,1085)" d="m0 0h5l1 4h3l3 3v2h2v2l5 2v2h2v2h3l1 4h2l5 5 6 7 4 2 4 5 5 3 12 10v4h3l4 4 2 5h2v2l5 1 1 4 5 2 5 6 7 5v2l4 2 14 10 3 1v2l5 2 4 2 3 3 9 5v2l4 2 11 8 1 2-1 2h-5l-6-2-7-5-7-4-2-3-3-2v-2l-4-1-5-4-4-3v-2l-5-1-3-5-11-9-4-4-5-3-2-4-5-2-2-5-5-2-4-4v-2l-5-2-5-3-5-5-2-1-2-3-1-2-4-1-5-6-7-5h-3v-2l-3-1v-2l-2-1-4-5-1 1 3 8 5 11-1 2h-2l-1 3-4-9-6-10-1-5-3-1-2-8h-2l-3-9z" fill="#DBD6D7" data-index="58" style="visibility: visible;"></path>
<path transform="translate(1863,1040)" d="m0 0h16l6 3 2 3-27 3-11 2-5 3-9 3v2l-8 5-5 88-2 41-1 13h-1v-36l-2 31-1 3h-2v-23l5-111 1-12 5-4 19-9 14-4z" fill="#DBD6D7" data-index="59" style="visibility: visible;"></path>
<path transform="translate(1446,1040)" d="m0 0h14l6 3 2 3-17 3-14 6-9 6-2 2-1 5-3 83-2 45h-2v10l-3 1-37-2v-3l16 2 22 1-1-16-2 3v-13l4-113 1-10 9-7 16-8z" fill="#DBD7D8" data-index="60" style="visibility: visible;"></path>
<path transform="translate(1562,1040)" d="m0 0h14l5 3 3 2-1 2-13 1-17 7-11 7-2 3-3 60-4 81-5 1 3-1v-19l-1 16h-2l-1-2v-17l3-87 2-39 5-5 14-9z" fill="#D1CECF" data-index="61" style="visibility: visible;"></path>
<path transform="translate(591,961)" d="m0 0 3 1-1 2 14-1 15-1 9-1v4h-2l1 5 5 1 8-3v3l6 3-2 2-14 6-16 9-10 8-2-1 3-5-3-1 4-4 4-2-7 1-2 4-4 1-1 3-4 1v2l-5 2v2l-5 5-3 4h-2l-3 6-10 3 2-4h3l1-4 5-4 3-5v-2h2l2-4 3-5 7-6h2v-2h2v-3h2l1-4 5-2v-4h-26l-11 3h-7l2-2 5-1-5-2 2-1 1-4 9-1 3 2v2l8-1v-2l-2-2z" fill="#DBD6D7" data-index="62" style="visibility: visible;"></path>
<path transform="translate(1644,1017)" d="m0 0 4 5 5 10 2 9v47l-1 26-3 46-2 45-1 1h-11v-1h10v-19l-1 15-2 2-1-2v-28l3-76 1-19v-41l-3-17z" fill="#D9D6D6" data-index="63" style="visibility: visible;"></path>
<path transform="translate(1277,1019)" d="m0 0h2l1 4-4 3-16 8-12 7-4 2v2l-6 2v2h-2v3l7-4 6-4 2 1-14 10-14 14-10 15-7 16-3 12-1 7v21l2 17-4-4-5-13-1-7v-19l3-17 6-15 6-11 10-13 12-12 16-11 18-10z" fill="#DAD6D7" data-index="64" style="visibility: visible;"></path>
<path transform="translate(1245,751)" d="m0 0 5 1 1 5 4-1 2-3 7-2h6l1 1v15l-13 2-4 1-2 11-1 30-13 1-2-1v-57l7-2z" fill="#656769" data-index="65" style="visibility: visible; opacity: 1;"></path>
<path transform="translate(1727,751)" d="m0 0 4 1 1 7 3-1 4-5 5-2h6l3 2-1 11-1 3-12 2-5 5-1 2-1 9-1 26-2 1h-11l-1-1v-58l4 1v-2z" fill="#646668" data-index="66" style="visibility: visible; opacity: 1;"></path>
<path transform="translate(1038,922)" d="m0 0 4 4 10 24 8 19 6 16 7 18 8 19 8 21 6 13 7 18 10 26 12 29 8 19 4 10 4 12 6 14 7 18 1 4-7 2-28 3h-6l-2-1-1-4-3-2 36-4h5v-4h-2l-3-9-11-28-8-20-5-11-10-25-5-13-22-54-6-16-14-36-11-28-13-32z" fill="#DBD6D7" data-index="67" style="visibility: visible;"></path>
<path transform="translate(1951,1026)" d="m0 0 3 4 3 7 1 8v45l-5 93-1 23-5 1-5-1-27-1v-1h30l5 2-2-9-1-1v-22l2-61 2-55v-11l-1-17z" fill="#D3CFD0" data-index="68" style="visibility: visible;"></path>
<path transform="translate(412,1111)" d="m0 0 4 1 5 5 9 11 2 3-1 6-6 5-9 2-15 1-7 2-1-3-7-2-1-4 2-13 4-4 7-3 11-1h4l3 3v-2l-2-1 2-2z" fill="#FCFCFC" data-index="69" style="visibility: visible; opacity: 1;"></path>
<path transform="translate(213,1095)" d="m0 0h10l7 4 5 6 1 3v10l-4 8-5 4-7 2-9-1-8-6-3-6v-11l3-6 7-6z" fill="#221652" data-index="70" style="visibility: visible;"></path>
<path transform="translate(732,1095)" d="m0 0h8l7 3 6 7 1 2v12l-4 6-6 5-9 2-9-3-5-4-3-7v-10l5-8 6-4z" fill="#221653" data-index="71" style="visibility: visible; opacity: 1;"></path>
<path transform="translate(428,975)" d="m0 0 11 1 5 3 10 4 14 7 15 8-3 1-1 1 1 3-5-1-3-1-1 6 4 2v2l2 1h-2v3l-10-2-5-2-10-9-4-2v-2h-2v-2l-5-2 1 4 6 7-4-2-7-7-16-14h3l2 2v-7z" fill="#DBD6D7" data-index="72" style="visibility: visible;"></path>
<path transform="translate(213,1088)" d="m0 0h9l9 3 6 4 5 7 1 3v15l-3 8h-2l-1 4-9 6-7 2h-4v-2h-7l-2-1v-2h-4v-2h-3v-2l-3-1-5-10-1-3v-12h2l1-6 7-7zm0 7-6 3-6 7-1 3v11l5 8 6 4 9 1 8-3 5-5 3-6v-10l-3-6-7-6-3-1z" fill="#FAFAFA" data-index="73" style="visibility: visible;"></path>
<path transform="translate(333,976)" d="m0 0h16l4 2 7 11 2 5v4l2-1 1 4h-2v2h4l5 12 1 7-2 1-7-3-8-7 3-1-7-4h-3v-2l-2-1-1-1-7-5v-2l-2-1-2-4-7-6-6-3-1-4 2-2z" fill="#FBFBFB" data-index="74" style="visibility: visible;"></path>
<path transform="translate(1e3 992)" d="m0 0 2 2 1 5-3 2v4l2 4-13 23-13 24-14 25-4 7 1 2-12-2 1-5 9-15 14-25 10-18 13-23z" fill="#DBD6D7" data-index="75" style="visibility: visible;"></path>
<path transform="translate(736,1088)" d="m0 0 10 1 9 6 5 9 1 4v12l-4 10-7 6h-2v2l-9 2-5-1-10-4-3-1-7-8-3-9v-10l2-4 3-1 3 2v14l4 8 7 4 7 1 9-3 6-7 1-2v-12l-4-6-5-4-4-1h-8l-5 2h-3v-2l-2-1 5-6z" fill="#FAF9F9" data-index="76" style="visibility: visible; opacity: 1;"></path>
<path transform="translate(497,1018)" d="m0 0 9 4 10 6 12 6 10 7 9 7 2 3-3 2-2 8-6 1-6-4-5-4v-2l-4-2-6-5v-2h-2v-2h-2v-2l-4-2-4-3v-2l-4-2-9-5 1-2z" fill="#FCFCFC" data-index="77" style="visibility: visible; opacity: 1;"></path>
<path transform="translate(591,976)" d="m0 0h7v5l-12 10-4 2-4 5-1 2-7 4-2 3h-5l-9-7v-3l-3-1-5-6 2-4 10-1 1-2 17-3z" fill="#F9F9F9" data-index="78" style="visibility: visible; opacity: 1;"></path>
<path transform="translate(553,1265)" d="m0 0h9l5 4 3 8v12l-4 8-4 3-6 1-5-2-5-6-2-8 1-11 4-6z" fill="#1A163A" data-index="79" style="visibility: visible;"></path>
<path transform="translate(1750,936)" d="m0 0h3v2l7-1 1 2-21 21-7 8-15 15-7 8-6 5-4-2-1-8 13-13 7-6 6-7 6-5 6-7 8-7z" fill="#DBDADA" data-index="80" style="visibility: visible;"></path>
<path transform="translate(305,1251)" d="m0 0 9 1 5 4 1 2v8h-4l-3-6-2-2-7 1-2 2 1 6 5 3 11 4 4 8v7l-4 8-4 3h-13l-5-4-2-4v-9h4l4 8 3 2 7-1 2-3-1-6-5-4-12-6-2-3v-8l3-8z" fill="#191438" data-index="81" style="visibility: visible;"></path>
<path transform="translate(798,861)" d="m0 0 4 1-9 11-5 7v2l-9 7-3 1v2l-11 4-2 5-3-1 1 3-3 1-3-1-1 4h-4l-4 4-6 2h-2l-3 3h-3l-1 2-3 1-4 3-11 4-7 1-1 2v-2h-2v3l-4 1-7 3-2-1-1 2h-4l-1 2h-4l-2 1v-2l-4 3-1-1-1 2-4-2 1-2h3v-2l26-8 19-8 14-6 23-13 16-11 14-11 5-4 3-4h2l1-4-8 3-3-1z" fill="#F7F7F7" data-index="82" style="visibility: visible;"></path>
<path transform="translate(471,1187)" d="m0 0 14 1 21 4v2l5 1 12 5 8 3-2 1-1 2-7-2-5-1-6-2-14-2-11-2-24-1h-24l-5 1h-8l-2-2v-2l9-2 11-2h14z" fill="#DBD6D7" data-index="83" style="visibility: visible; opacity: 1;"></path>
<path transform="translate(1512,766)" d="m0 0 10 1 5 5 2 6v10l-4 7-5 3-11-1-5-5-1-2v-15l3-5 3-3z" fill="#F9F8F8" data-index="84" style="visibility: visible;"></path>
<path transform="translate(1083,766)" d="m0 0 9 2 4 5 1 3v14l-5 6-2 1h-13l-5-6-1-3v-11l3-6 4-4z" fill="#F9F9F9" data-index="85" style="visibility: visible;"></path>
<path transform="translate(1191,766)" d="m0 0 10 1 5 5 1 3v15l-3 5-5 3-12-1-4-6-1-5v-11l3-6z" fill="#F9F9F9" data-index="86" style="visibility: visible;"></path>
<path transform="translate(651,1251)" d="m0 0 9 1 5 5 1 7-1 3-4-2-4-7h-6l-3 1v7l6 4 9 3 4 5 1 10-3 8-5 4h-12l-5-4-2-5v-8l5 1 2 8 7 1 6-2v-7l-4-4-10-4-6-7v-9l4-6z" fill="#1C173B" data-index="87" style="visibility: visible;"></path>
<path transform="translate(397,1264)" d="m0 0 4 1v7l-6 21-3 7-5-1-4-9-5-17-1-4h-2l-1 3-7 2-2 10-1 15h-6v-32l1-1 14-1 5 2v-2l5 1 6 21 1 1 5-19z" fill="#191539" data-index="88" style="visibility: visible;"></path>
<path transform="translate(128,959)" d="m0 0h1l-1 7-7 22-3 11 21-7 34-13 5-1v3l-3 2h-3-2l-1 4-12 6-10 4-33 11h-3v-8l2-12 2-6 1-5 3-4 2-6 4-1v-3h2z" fill="#F9F8F9" data-index="89" style="visibility: visible;"></path>
<path transform="translate(322,955)" d="m0 0h43l33 5 22 5 5 2v2l-6 3 1 3h-6l-4-2h-9l-5 2-14 2-3 6-6-5v-4l19-4h4l-3-7-9-2h-6v1h-10l-3-1h-3v-2l-5-1-10 1-8-2v2h-10l-2-1-1 2v-2l-6-1z" fill="#FAFAFA" data-index="90" style="visibility: visible;"></path>
<path transform="translate(661,937)" d="m0 0h5l-1 3-9 3-7 3-2-1v2l-5-1v2l-5-1-1 2-11 2-2 1-3-1-1 2-10 2-7 2-6 1-5 1h-9v2l-6-1-1 2-2-1-2 2h-6l-7 1-4-1-14-2v-1l21-3 55-10 42-9z" fill="#F6F6F6" data-index="91" style="visibility: visible; opacity: 1;"></path>
<path transform="translate(460,1264)" d="m0 0 7 1 5 5 2 6v6l-7 3h-12l2 7 3 2 7-1 4-4h3l-1 6-5 5h-11l-5-4-2-4-1-13 3-9 5-5z" fill="#1A153A" data-index="92" style="visibility: visible; opacity: 1;"></path>
<path transform="translate(338,1264)" d="m0 0 9 1 5 8 1 8-4 3-3 1h-11l1 9h7l9-5-1 7-5 4-7 1-5-2-4-4-2-9v-9l3-9 4-3z" fill="#1E1A3D" data-index="93" style="visibility: visible;"></path>
<path transform="translate(485,984)" d="m0 0 3 1v2l9 1h4l2 1 1-3 5 2 16 11 13 11 14 12 5 5v2l-5-2-17-11-29-16-27-13v-2z" fill="#151037" data-index="94" style="visibility: visible; opacity: 1;"></path>
<path transform="translate(1421,1086)" d="m0 0h1v28l-1 28 1 11-2 43h-2v10l-3 1-37-2v-3l16 2 22 1-1-16-2 3v-13l2-54 2-5 2-1z" fill="#C5C2C3" data-index="95" style="visibility: visible; opacity: 1;"></path>
<path transform="translate(719,1265)" d="m0 0h11l5 5 2 5v8l-7 2h-12l3 8 6 1 9-4-1 6-5 4h-10l-5-4-3-8v-11l5-10z" fill="#201C3E" data-index="96" style="visibility: visible;"></path>
<path transform="translate(651,1030)" d="m0 0 2 3-5 5h-3l-1 4-2 3-5 2-7 7-1 2 3 2h-2l-1 4h-2v3h-2l-1 8-4 9-5 11v3h-2l-1 3-2-9v-12h2l1-7 2-2v7l4-2 1-3-4 1 1-7 4-10 3-7 5-7 11-9 6 2 3-1v-2z" fill="#FBFBFB" data-index="97" style="visibility: visible;"></path>
<path transform="translate(271,1007)" d="m0 0 5 5v2h2v3l6 2 3 3 4 1 3 4v2l3 1 9 12 3 5 1 8-3 1-3-2-3-1-5-8-2-2-6-7-5-5-1-3-7-5v-2l-6-2-2-2-2-3 6-1-3-4z" fill="#DBD6D7" data-index="98" style="visibility: visible;"></path>
<path transform="translate(410,1050)" d="m0 0 3 1 13 24-1 4-7-2-5 1-3 5-5 9-2 5-4 2-5-1-2-4h4l2-4 4-9 5-18z" fill="#DCDDDD" data-index="99" style="visibility: visible; opacity: 1;"></path>
<path transform="translate(597,1264)" d="m0 0 3 1v35h-4l-2-4-6 4h-8l-4-7v-28h5l1 1 1 22 2 5 5-1 2-3 2-22z" fill="#181338" data-index="100" style="visibility: visible;"></path>
<path transform="translate(1061,1114)" d="m0 0 2 1-1 3h-8l-8 2-17 4-37 7-12 1v2l-21 4-2 1h-17v1l-16 3-2 1 1-5 19-4 53-9z" fill="#DBDADA" data-index="101" style="visibility: visible;"></path>
<path transform="translate(729,1041)" d="m0 0h10l12 2h4l1 2h3l4 1 11 6 2 4h3l3 3 3 5 3 3v5h-2v-3l-4-2-14-10-6-4-11-3-12-1h-13l-14 3-3-3 4-3 6-3z" fill="#DBD6D7" data-index="102" style="visibility: visible; opacity: 1;"></path>
<path transform="translate(1367,1175)" d="m0 0h1v8l-6 4-14 11-10 7-12 5-11 1-7-3v-2l17-4 16-10 13-11 3-2v2l10-3z" fill="#DBDADB" data-index="103" style="visibility: visible;"></path>
<path transform="translate(1054,1117)" d="m0 0h8l2 2-4 1-8 1h13l-1 2-37 7-29 5h-16v1l-11 1-6 2-5-1v2l-10 1 1-3h7l6-2 9-2h7v-2l45-8 17-4z" fill="#DAD6D6" data-index="104" style="visibility: visible;"></path>
<path transform="translate(322,1110)" d="m0 0h1l1 6v10l-3 7h3l1 4-2 17-3 3-5 13-5 15-3 5-5 2-1-2v-11l5-8v-5h2l1-4 5-8 5-18 1-15z" fill="#DBD6D7" data-index="105" style="visibility: visible;"></path>
<path transform="translate(1286,1183)" d="m0 0 1 3-5 6-13 8-14 6-14 4-13 2h-22l-15-3-9-4 2-1 8 3h39l21-6 6-3 4-1 1-2h3l1-2 3-3 1 1 5-2 6-4z" fill="#DBD9D9" data-index="106" style="visibility: visible;"></path>
<path transform="translate(512,1264)" d="m0 0h7l5 3 3 4v4l-5-1-5-4-4 1v5l12 6 3 5v6l-4 6-6 2-8-1-4-4-1-7h3l6 5h5l3-1-1-5-12-6-3-3v-8l3-5z" fill="#1A1539" data-index="107" style="visibility: visible;"></path>
<path transform="translate(728,1011)" d="m0 0h5l1 1h9l6 2 1 3h-24-2l-1 2-18 4-16 7-12 8-10 9h-2l-2-7 3-3 4 1 3-4v-3h4l-1-2 5-1 8-4 6-1v-4h2v2h2l1-2 2 1 1-3 5-1 9-3 1 1 3-2h5 1z" fill="#F5F4F5" data-index="108" style="visibility: visible;"></path>
<path transform="translate(504,1154)" d="m0 0 4 1 8 3 9 3 2 1v2l7 2 10 6 6 2 5 3v2h4l5 5 8 4v2l3 1-2 3-2-1v-4h-3v2l-3 1-5-4-6-3-7-3v-2l-8-1-8-4-1-2-4-2 3-1-7-2-3-3-7-3-9-5-1-2z" fill="#DBD6D7" data-index="109" style="visibility: visible; opacity: 1;"></path>
<path transform="translate(1821,1100)" d="m0 0 2 4-1 50-3 52h-1v-36l-2 31-1 3h-2v-23l2-44 2 1 2-4z" fill="#AEACAD" data-index="110" style="visibility: visible;"></path>
<path transform="translate(690,887)" d="m0 0 5 1-1 2-5 3-17 5-6 1-14 5-25 6-35 7h-10v-2l16-3 5-2 28-6 18-5 16-4 12-4z" fill="#DBD6D7" data-index="111" style="visibility: visible; opacity: 1;"></path>
<path transform="translate(431,1264)" d="m0 0 9 2 4 6v5l-5-1-5-4-5 1-2 4v10l3 6 5-1 6-5h3l1 3-3 6-5 4h-9l-5-4-3-6v-14l4-8 4-3z" fill="#181337" data-index="112" style="visibility: visible;"></path>
<path transform="translate(101,1099)" d="m0 0h1l1 9 1 2-1 2h2l1-2 1 10v5l3-1 3 12 2 3v7h2l5 12 2 5 3 6-3 5-2-1-2-5h-2l-11-27-7-21 2-8h-2l-1-4 1-8z" fill="#DBD6D7" data-index="113" style="visibility: visible;"></path>
<path transform="translate(1651,1134)" d="m0 0h1l-1 26-2 45-1 1h-11v-1h10v-19l-1 15-2 2-1-2v-28l1-29 1-5 1 2h2v-5z" fill="#D7D3D4" data-index="114" style="visibility: visible;"></path>
<path transform="translate(744,1265)" d="m0 0 8 1 2-1h7l4 4 1 4v17l-3 8-2 1-1-22-1-5-10 1-1 27h-5v-34z" fill="#1B163A" data-index="115" style="visibility: visible; opacity: 1;"></path>
<path transform="translate(1286,1174)" d="m0 0 2 1v6l2 4-3 1-1-2-5 3-6 4-6 2-11 6-8 4-19 5h-30l-14-3-1-2 18 2h11l21-3 12-4 17-8 12-8z" fill="#DBD9DA" data-index="116" style="visibility: visible;"></path>
<path transform="translate(324,1141)" d="m0 0h2l1 3-1 2h2v2h-3l2 1v5l-4 5 1 9-5 14 7-1v3l-1 1-7 6-10 5-2-1 1-7 3-5 7-22 5-8 1-10z" fill="#DBDBDB" data-index="117" style="visibility: visible;"></path>
<path transform="translate(510,1185)" d="m0 0 9 1 9 4 13 3 3-3 10 2 14 9 15 11 10 9-2 1-21-12-16-8-21-8-25-7z" fill="#19143A" data-index="118" style="visibility: visible; opacity: 1;"></path>
<path transform="translate(1950,1131)" d="m0 0 2 1 1 18h1v18l-2 38-5 1-5-1-27-1v-1h30l5 2-2-9-1-1v-22l1-35 1-7z" fill="#DBD6D7" data-index="119" style="visibility: visible;"></path>
<path transform="translate(743,1264)" d="m0 0 11 1-2 2-8-1-1 34h5v-21l1-6 2-1h8l1 2v27h-1l-1-5-5 2-3 3h-8l-1-7v-26z" fill="#DBDADA" data-index="120" style="visibility: visible;"></path>
<path transform="translate(676,1252)" d="m0 0 5 1 1 2v9l4 1v5l-3 3-1 20 7 2-1 5-7 1-4-2-2-7v-19l-3-6 1-3h2z" fill="#191538" data-index="121" style="visibility: visible;"></path>
<path transform="translate(1277,1019)" d="m0 0h2l1 4-4 3-16 8-12 7-4 2v2l-6 2v2l-5 2-13 13-2 4-6 2 2-6 11-12 10-9 15-10z" fill="#DBDADA" data-index="122" style="visibility: visible;"></path>
<path transform="translate(443,700)" d="m0 0 2 1-11 8-11 7-10 7-5 3-8 1v3l-7 1v2l-11 3h-3l1-4 17-9 32-16z" fill="#201B3F" data-index="123" style="visibility: visible; opacity: 1;"></path>
<path transform="translate(798,1032)" d="m0 0 4 2 7 6 4 4v2l5 4v3l2 1 2 4v2l3 1 1 6-1 1 3 1-1 6 3 6 1 4 2 1v7l1 7-2-1v-5h-2l-3-12-6-14-9-14-9-10-9-7 1-3 3-1z" fill="#F5F5F5" data-index="124" style="visibility: visible;"></path>
<path transform="translate(426,1021)" d="m0 0 5 3 15 14 5 5v6l-3 4-2 6-5-4-8-17-7-15z" fill="#DBD6D7" data-index="125" style="visibility: visible; opacity: 1;"></path>
<path transform="translate(1863,1040)" d="m0 0h16l6 3 2 3-18 2h-5l4-2 5-1h-9l-17 5-15 6-10 5-2 4-1-1v-6l5-4 19-9 14-4z" fill="#DBD9DA" data-index="126" style="visibility: visible;"></path>
<path transform="translate(1149,1197)" d="m0 0h2l3 6-1 4-22 3-18 1-2-1-1-4-3-2 36-4h6z" fill="#DBDADA" data-index="127" style="visibility: visible;"></path>
<path transform="translate(1531,1135)" d="m0 0h1l1 17 2-1-1 37-1 18-5 1 3-1v-19l-1 16h-2l-1-2v-17l1-33 1-13z" fill="#DBD6D7" data-index="128" style="visibility: visible;"></path>
<path transform="translate(718,1215)" d="m0 0 39 1v3h-2v2l-10 3h-17l-9-2h-12l-1-4 2-1h10z" fill="#DBD6D7" data-index="129" style="visibility: visible; opacity: 1;"></path>
<path transform="translate(693,1265)" d="m0 0 4 1h3l7-1 3 1 1 5-1 1-9 1-1 4-1 21-1 2h-5l-1-1v-33z" fill="#171337" data-index="130" style="visibility: visible;"></path>
<path transform="translate(607,1265)" d="m0 0h16l1 1v6l-10 1-1 27-4 1-2-1z" fill="#171337" data-index="131" style="visibility: visible;"></path>
<path transform="translate(599,1060)" d="m0 0 2 2v8l-2 18v18l-3 1 3 9-1 4-1-5h-2l-3-17v-13l2-14 3-9h2z" fill="#F4F4F4" data-index="132" style="visibility: visible;"></path>
<path transform="translate(1734,1036)" d="m0 0h1v21l-5 106-1 29-1 10 3-3 2-26h1v19l-1 13-40-1v-1l33-1 1-14 2-50z" fill="#656769" data-index="133" style="visibility: visible;"></path>
<path transform="translate(376,960)" d="m0 0h8l10 2 2 5v3l-17 4h-6l1 3-4-1 1-4 3-1h-4l-1-9 7-1z" fill="#DCDDDD" data-index="134" style="visibility: visible;"></path>
<path transform="translate(1800,786)" d="m0 0h10l-3 2 2 4v3h-2l-1-3-6 1-5 3-4 1h-9l-6-3-2-3v-4z" fill="#F6F6F6" data-index="135" style="visibility: visible;"></path>
<path transform="translate(507,1129)" d="m0 0 5 1v2l4 2 7 6 1 3v4h7l2 4 3 1v4l-5-1-4-3h-8v-2l-6-4-3-4-5-12z" fill="#FCFCFC" data-index="136" style="visibility: visible; opacity: 1;"></path>
<path transform="translate(1646,1029)" d="m0 0h1l1 8v41l-3 66-1 29v28h1l1-15 2-2v12l-1 9h-10l1-2h3l1-34 4-99z" fill="#656769" data-index="137" style="visibility: visible;"></path>
<path transform="translate(623,1130)" d="m0 0 1 2 3 1 1 8 3 4v2l2-1 1-9 2 2 2 6-1 2h2l1 5 1 2h2l1 5-2 6-6-3v-2l-4-1-1-4-6-5-1-10-2-5z" fill="#DBD6D7" data-index="138" style="visibility: visible;"></path>
<path transform="translate(693,1217)" d="m0 0 8 2-3 2-5 2-18 2h-8l-20-2-2-3 1-1 38-1z" fill="#DBD6D7" data-index="139" style="visibility: visible;"></path>
<path transform="translate(198,1035)" d="m0 0h31l6 1v1l-10 1-1 2v-2l-4 1h-11l-16 4-13 6-4-3v-2l12-6z" fill="#F8F8F8" data-index="140" style="visibility: visible;"></path>
<path transform="translate(1334,753)" d="m0 0 3 4 6 18v5l-16-2-1-3 7-21z" fill="#F4F4F4" data-index="141" style="visibility: visible;"></path>
<path transform="translate(484,1108)" d="m0 0 3 1 4 9 5 7 2 5v10l-6 4h-7l2-3 2-4-2-11h-1l-1-7v-2l-3-2z" fill="#DEDEDE" data-index="142" style="visibility: visible;"></path>
<path transform="translate(557,1213)" d="m0 0 12 4 6 4 12 5 7 5v5h-6l-2-2-7-3-3-1v-2l-6-2-4-2v-2h-3v-2l-4-1-2-2-3-1v-2z" fill="#DBD6D7" data-index="143" style="visibility: visible;"></path>
<path transform="translate(555,1271)" d="m0 0 6 1 3 5v11l-3 5-6 1-3-3-1-3v-12z" fill="#F8F8F8" data-index="144" style="visibility: visible;"></path>
<path transform="translate(299,956)" d="m0 0h9l1 2-4 1 3 3-15 2h-12l-2-1-8 2-1 2-5-1-28 10-2 2-5-1 3-2 15-6 22-7z" fill="#F7F7F7" data-index="145" style="visibility: visible;"></path>
<path transform="translate(493,1265)" d="m0 0h6l1 34-1 1h-5l-2-7v-19z" fill="#171237" data-index="146" style="visibility: visible;"></path>
<path transform="translate(405,1391)" d="m0 0h90l3 2-54 1-17 1-19-1-3-1z" fill="#0B062E" data-index="147" style="visibility: visible; opacity: 1;"></path>
<path transform="translate(1783,765)" d="m0 0 9 1 4 4v6l-17 2-6-1 2-7 5-4z" fill="#F7F7F7" data-index="148" style="visibility: visible; opacity: 1;"></path>
<path transform="translate(408,1264)" d="m0 0 4 1 1 1v34h-5l-1-1v-31z" fill="#191538" data-index="149" style="visibility: visible;"></path>
<path transform="translate(651,1251)" d="m0 0 9 1 5 5 1 7-1 3-4-2-4-7h-6l-3 1-2 6-3 1v5l-2-2v-9l4-6z" fill="#1F1B3E" data-index="150" style="visibility: visible;"></path>
<path transform="translate(1365,1180)" d="m0 0h2v2h-2l-2 4-12 10-13 9-12 5-11 1-5-2v-1l12-1 12-5 10-6 6-5h2v-2l8-6z" fill="#656769" data-index="151" style="visibility: visible;"></path>
<path transform="translate(651,1257)" d="m0 0h6l6 9 2 1 1-3-1 6 1 4-1 3-4-4-11-4-3-3 1-7z" fill="#F9F8F9" data-index="152" style="visibility: visible;"></path>
<path transform="translate(332,1092)" d="m0 0h1l1 8v26l-3 18-6 21-3-4 1-4 3-3-1-6h3v-2h-2l-1-6 2-6 1-5h2 1v-8h-1v-7l1-2h2l-1-11z" fill="#DBD6D7" data-index="153" style="visibility: visible;"></path>
<path transform="translate(310,991)" d="m0 0 6 1 8 7 10 9 1 1v5l-3 1-8-7-5-3-7-7-1-5z" fill="#E2E2E2" data-index="154" style="visibility: visible;"></path>
<path transform="translate(1680,785)" d="m0 0 5 1v8l-5 5h-7l-6-3v-5l3-3z" fill="#F3F2F3" data-index="155" style="visibility: visible;"></path>
<path transform="translate(337,859)" d="m0 0h38l9 3 5 3-3 1-12-2-1-1h-7v1h-5v-2l-4 1h-14l-5 1-8-3v-1z" fill="#FAFAFA" data-index="156" style="visibility: visible;"></path>
<path transform="translate(339,638)" d="m0 0 4 1-26 10-17 6-15 6-16 6-18 7-5 3-2-1 14-8 37-14 20-7z" fill="#DBDBDB" data-index="157" style="visibility: visible;"></path>
<path transform="translate(1757,939)" d="m0 0h2l-2 4-18 18h-2l-5 5-4 2-2 4h-2l-2 4h-2v2h-2v2h-2l-2 4h-2v2l-4 2 2-4 9-9 1-2h2v-2h2l2-4h2l2-4 8-8 11-9z" fill="#656769" data-index="158" style="visibility: visible;"></path>
<path transform="translate(782,1264)" d="m0 0 5 1 3 2 4-3 2 1-8 6-6 1-4 5-3 11-4 3v-11l3-10 5-5z" fill="#211D3F" data-index="159" style="visibility: visible;"></path>
<path transform="translate(1286,1183)" d="m0 0 1 3-5 6-13 8-6 3h-13l2-2 6-3 4-1 1-2h3l1-2 3-3 1 1 5-2 6-4z" fill="#B1AFB0" data-index="160" style="visibility: visible;"></path>
<path transform="translate(487,1139)" d="m0 0 2 1-2 3h5l3-2 3 2-6 2v3l-6 3 1 4 4 3-8-1-4-3-5-3h-3l-2-1 13-8z" fill="#DBD6D7" data-index="161" style="visibility: visible;"></path>
<path transform="translate(696,1022)" d="m0 0m-1 1m-6 1h6v3l-14 8-11 9-3 3h-2l-2-7 3-3 4 1 3-4v-3h4l-1-2 5-1z" fill="#F6F5F5" data-index="162" style="visibility: visible;"></path>
<path transform="translate(737,1276)" d="m0 0h1v11l-1 7-2-3-8 4-6-1-3-5v-4l5-1h7l7-1z" fill="#F1F0F0" data-index="163" style="visibility: visible;"></path>
<path transform="translate(614,1069)" d="m0 0 1 3v4l4-2 5-5-1 6-5 11-3 7v3h-2l-1 3-2-9v-12h2l1-7z" fill="#F7F7F7" data-index="164" style="visibility: visible;"></path>
<path transform="translate(1280,1022)" d="m0 0h1v7l-1-2-11 6-13 7-9 6-8 6h-3v-3h2v-2l6-2v-2l5-4 11-6 16-8z" fill="#656769" data-index="165" style="visibility: visible;"></path>
<path transform="translate(410,1050)" d="m0 0 3 1 3 9-5 13-4 5v2l-2 1-2 7h-2l1-7 5-18z" fill="#F7F7F7" data-index="166" style="visibility: visible;"></path>
<path transform="translate(1249,1044)" d="m0 0 2 1-14 10-13 13-4 1-6 7v-3l6-10 13-13 3-1v3l7-4z" fill="#D8D4D5" data-index="167" style="visibility: visible;"></path>
<path transform="translate(1562,1040)" d="m0 0h14l5 3 3 2-1 2h-11l1-3h-7l-13 5-5 3h-5l1-4 14-7z" fill="#DBDBDB" data-index="168" style="visibility: visible;"></path>
<path transform="translate(362,1156)" d="m0 0 4 1 2 2-1 4v3l-3 3-4 3-8 1-2-1 2-3 2-6 5-4z" fill="#DBD6D7" data-index="169" style="visibility: visible;"></path>
<path transform="translate(486,595)" d="m0 0h31l16 1v1h-38l-14 1-21 5-26 7-9 3h-5l3-2 33-10 22-5z" fill="#DBDBDB" data-index="170" style="visibility: visible;"></path>
<path transform="translate(1418 1e3)" d="m0 0h2l1 7 5 2 1 1 1 14-8 7h-1z" fill="#DBD6D7" data-index="171" style="visibility: visible;"></path>
<path transform="translate(1737,960)" d="m0 0 2 2-21 21-6 7-7 4h-2l1-6 3-4h2l1-3 7-6 3-2-2 4-9 9h3v-2l4-4h2v-2h2v-2l7-6 5-5 4-2z" fill="#DBD7D8" data-index="172" style="visibility: visible;"></path>
<path transform="translate(743,1264)" d="m0 0 11 1-2 2-8-1-1 34h6l1-7h2l2-4 5-2 1 2v12h-1l-1-5-5 2-3 3h-8l-1-7v-26z" fill="#DFDEDE" data-index="173" style="visibility: visible;"></path>
<path transform="translate(507,1159)" d="m0 0 5 2 10 5v2l8 1-2 2 2 1v2l-10-3-13-4-3 1-4-3h-2v-2h-2l1-3 9 2h2z" fill="#DDDEDE" data-index="174" style="visibility: visible; opacity: 1;"></path>
<path transform="translate(313,1180)" d="m0 0h3v5l6-2v-2l5 1-1 2-1 1-7 6-10 5-2-1 1-7 4-7z" fill="#FCFCFC" data-index="175" style="visibility: visible;"></path>
<path transform="translate(1864,1044)" d="m0 0h16v1l-20 4-11 2-5 3-13 6-8 4 1-5 17-8 15-5z" fill="#656769" data-index="176" style="visibility: visible;"></path>
<path transform="translate(1750,936)" d="m0 0h3v2l7-1 1 2-2 2v-2l-6 4-13 12-6 4 1-6 3-5 8-7z" fill="#DBD7D7" data-index="177" style="visibility: visible;"></path>
<path transform="translate(1449,1043)" d="m0 0h9l5 1v1h-7v2l-15 6-9 3-9 6 2-4 4-2 2-4 4-1v-2z" fill="#CECACB" data-index="178" style="visibility: visible;"></path>
<path transform="translate(1414,1182)" d="m0 0h1l1 11v12h-22l-16-2-2 1v-3l-3-1h8l6 1 26 1v-10z" fill="#DBD7D7" data-index="179" style="visibility: visible;"></path>
<path transform="translate(1446,1040)" d="m0 0h14l6 3 2 3-12 1v-2l2-1h-9l-12 5h-2v2l-4 1-3-2 6-3 4-4z" fill="#DBDADA" data-index="180" style="visibility: visible;"></path>
<path transform="translate(471,1283)" d="m0 0 2 1-1 2 2 1v2l-10 6-6-1-3-3v-6z" fill="#F4F3F3" data-index="181" style="visibility: visible;"></path>
<path transform="translate(1527,1154)" d="m0 0h1v49h2v-16l2-4v13l-1 10-11-1-25-1v-1l12-1h18z" fill="#656769" data-index="182" style="visibility: visible;"></path>
<path transform="translate(1132,1152)" d="m0 0 3 4 3 8 2 6 6 14 4 11v6l-2-1v-4h-2l-3-9-11-28-1-6z" fill="#DBD8D9" data-index="183" style="visibility: visible;"></path>
<path transform="translate(1130,1204)" d="m0 0h22l-2 2-16 3-3 1-18 1 1-4 3-2h10z" fill="#D2CECF" data-index="184" style="visibility: visible;"></path>
<path transform="translate(101,1099)" d="m0 0h1l1 9 1 2-1 2h2l1-2 1 10-1 8 3 9-1 4-2-3-6-18 2-8h-2l-1-4 1-8z" fill="#DBD7D8" data-index="185" style="visibility: visible;"></path>
<path transform="translate(375,1084)" d="m0 0 5 1 12 7 4 2h-4l3 4 5 1v1l-6 1-8-3-7-5z" fill="#DBDBDB" data-index="186" style="visibility: visible;"></path>
<path transform="translate(358,1267)" d="m0 0h1l1 18 2-2 2-10 5-1-2 2-2 10-1 15h-6z" fill="#646668" data-index="187" style="visibility: visible;"></path>
<path transform="translate(698,926)" d="m0 0 3 1-3 5-6 2-2-1-1 2h-4l-1 2h-4l-2 1v-2l-4 3-1-1-1 2-4-2 1-2h3v-2z" fill="#F7F7F7" data-index="188" style="visibility: visible; opacity: 1;"></path>
<path transform="translate(1947,1144)" d="m0 0h1v52l2 3v7l-5-1-30-1v-1h30l1-32z" fill="#656769" data-index="189" style="visibility: visible;"></path>
<path transform="translate(1817,1169)" d="m0 0 2 1-1 36-10-1-23-1v-1l26-1 1-14h1v16h2z" fill="#656769" data-index="190" style="visibility: visible;"></path>
<path transform="translate(752,1016)" d="m0 0 14 2 4 2 4-2-1 3 2 1 1-2h2l2 2v4l4-1 2 1v2h2v2l2 1-7-1-12-6-15-4-5-1z" fill="#F5F4F4" data-index="191" style="visibility: visible;"></path>
<path transform="translate(583,1198)" d="m0 0 7 3 5 3v2h2l7 8-2 4-7-3-6-8-1-5-5-2z" fill="#DBD6D7" data-index="192" style="visibility: visible;"></path>
<path transform="translate(473,1149)" d="m0 0 2 1 1 2 6 3 6 2v2l-7 1-11-3h-8l1-5 6-1z" fill="#DFE0E0" data-index="193" style="visibility: visible;"></path>
<path transform="translate(1839,1047)" d="m0 0 4 1-2 4-18 8-2 5-2-1v-6l5-4z" fill="#DBDBDB" data-index="194" style="visibility: visible;"></path>
<path transform="translate(322,955)" d="m0 0h35l2 2-10 2-10-2v2h-10l-2-1-1 2v-2l-6-1z" fill="#FDFDFD" data-index="195" style="visibility: visible;"></path>
<path transform="translate(805,1117)" d="m0 0 2 1 1 6-5 17-3 3h-3l-1-3 4-5 1-10h2z" fill="#DBD6D7" data-index="196" style="visibility: visible;"></path>
<path transform="translate(1531,1135)" d="m0 0h1v23l-1 1v12l-1 9-2-2v-27l1-13z" fill="#DBD8D9" data-index="197" style="visibility: visible;"></path>
<path transform="translate(509,1100)" d="m0 0 4 2 8 8 8 7 16 15 10 9 5 5-4-2-11-9-9-9-10-8-11-11h-3l-2-5z" fill="#DBD6D7" data-index="198" style="visibility: visible; opacity: 1;"></path>
<path transform="translate(728,1011)" d="m0 0h5l1 1h9l6 2 1 3h-24l-2-1v-2h3z" fill="#FBFBFB" data-index="199" style="visibility: visible;"></path>
<path transform="translate(357,955)" d="m0 0 16 1 14 2-3 2-6 1v1h-10l-3-1h-3v-2l-3-1v-2z" fill="#F5F5F5" data-index="200" style="visibility: visible;"></path>
<path transform="translate(313,914)" d="m0 0 2 1-1 2-24 3-14 1v-2l14-4z" fill="#DBD6D7" data-index="201" style="visibility: visible;"></path>
<path transform="translate(1775,770)" d="m0 0 4 2h13l3 1 1-3v6l-17 2-6-1z" fill="#D0CCCD" data-index="202" style="visibility: visible;"></path>
<path transform="translate(358,743)" d="m0 0 2 1-19 11-28 17-11 7-2-1 10-7 18-11h2v-2l12-6z" fill="#DBD9D9" data-index="203" style="visibility: visible;"></path>
<path transform="translate(625,1044)" d="m0 0 2 1-4 6-4 13-2 4v3l4-1-2 5-4 2-1-5 1-3h-2l2-9 9-15z" fill="#E0E1E1" data-index="204" style="visibility: visible;"></path>
<path transform="translate(357,1266)" d="m0 0 2 1-1 32h6v-15l2-10h1v25l-2 2h-6l-2-1z" fill="#DBD8D8" data-index="205" style="visibility: visible;"></path>
<path transform="translate(1417,1178)" d="m0 0 2 1v17l-1 10-3 1-37-2v-3l16 2 22 1v-11z" fill="#656769" data-index="206" style="visibility: visible;"></path>
<path transform="translate(1246,1203)" d="m0 0 7 1-3 2-10 3-20 2h-12l-7-1v-1l27-1z" fill="#656769" data-index="207" style="visibility: visible;"></path>
<path transform="translate(460,1270)" d="m0 0 5 1 3 4-1 4-2 1h-9l-1-5z" fill="#F0F0F0" data-index="208" style="visibility: visible;"></path>
<path transform="translate(484,1108)" d="m0 0 2 2 3 7 7 13-1 2-7-2-2-4-1-7v-2l-3-2z" fill="#FDFDFD" data-index="209" style="visibility: visible;"></path>
<path transform="translate(274,961)" d="m0 0 4 1-7 3-1 2-5-1-28 10-2 2-5-1 3-2 15-6 22-7z" fill="#F1F1F1" data-index="210" style="visibility: visible;"></path>
<path transform="translate(744,1265)" d="m0 0 7 2v1h-6v24l3-19h1l-1 27h-5v-34z" fill="#656769" data-index="211" style="visibility: visible;"></path>
<path transform="translate(1814,1170)" d="m0 0 3 4v14l-1 13-1 3h-2v-23z" fill="#DBD7D8" data-index="212" style="visibility: visible;"></path>
<path transform="translate(633,1205)" d="m0 0 4 2 12 4 7 1h14l28-1v-3l4 2-3 2-23 2h-25l-13-4z" fill="#DBD6D7" data-index="213" style="visibility: visible;"></path>
<path transform="translate(1335,1196)" d="m0 0 3 1v2l-11 6h-2v2l-3 1-13 1-1-3 17-4z" fill="#eee" data-index="214" style="visibility: visible;"></path>
<path transform="translate(1123,1138)" d="m0 0 2 1 8 20 11 28 2 4v5l-3-4-6-16-14-35z" fill="#656769" data-index="215" style="visibility: visible;"></path>
<path transform="translate(435,1033)" d="m0 0 5 3 4 3v2l4 2-1 4-3 2-4-2v-2h-2l-2-7-2-1z" fill="#FDFDFD" data-index="216" style="visibility: visible; opacity: 1;"></path>
<path transform="translate(322,1007)" d="m0 0 4 2 6 5h3l1-3 9 10v5l-5-3-3-3-5-2-10-10z" fill="#DBDADA" data-index="217" style="visibility: visible;"></path>
<path transform="translate(439,973)" d="m0 0h7l28 11-2 2-6-1-15-6-12-5z" fill="#F1F1F1" data-index="218" style="visibility: visible;"></path>
<path transform="translate(469,1097)" d="m0 0 4 4 1 4h2l2 7 3 1v2l4 1 2 2-1 2 1 5h1l1 7-3-3-13-23-4-7z" fill="#DBD9D9" data-index="219" style="visibility: visible;"></path>
<path transform="translate(1731,1152)" d="m0 0h1v25l-1 18-2 1v-33z" fill="#DBDADA" data-index="220" style="visibility: visible;"></path>
<path transform="translate(528 1e3)" d="m0 0 8 6 10 9 8 7 3 3v2l-5-2-6-4v-3l-3-2v-2l-5-1-6-7-4-3z" fill="#49465F" data-index="221" style="visibility: visible; opacity: 1;"></path>
<path transform="translate(1821,1008)" d="m0 0h6l-3 1v23l-2 4h-2v-12z" fill="#DBD9DA" data-index="222" style="visibility: visible;"></path>
<path transform="translate(1142,739)" d="m0 0 2 2v8l15 1 1 1v7l-1-3h-9l-7-2-1-2z" fill="#DBD7D8" data-index="223" style="visibility: visible;"></path>
<path transform="translate(1177,1200)" d="m0 0 9 1 10 2 29 1v1l-10 1h-11l-17-2 10 3v1l-8-1-12-6z" fill="#656769" data-index="224" style="visibility: visible;"></path>
<path transform="translate(193,1016)" d="m0 0 11 2v1l-17 4-8 3-4-1 5-2 1-3 7-3z" fill="#F6F5F6" data-index="225" style="visibility: visible;"></path>
<path transform="translate(529,1018)" d="m0 0 4 1 5 4 5 1 5 5 2 4-6-2-7-1-3-5-3-2z" fill="#DCDDDD" data-index="226" style="visibility: visible;"></path>
<path transform="translate(1717,750)" d="m0 0h13l1 2-8 1-2-1v2l-4-1v58h-1v-60z" fill="#DBDCDC" data-index="227" style="visibility: visible;"></path>
<path transform="translate(541,1391)" d="m0 0h39l2 2-6 1-15 1-7-2-13-1z" fill="#0B062E" data-index="228" style="visibility: visible; opacity: 1;"></path>
<path transform="translate(359,1266)" d="m0 0h8l-4 2v3l3 1-2 1-1 10-3 3-1-1z" fill="#251A54" data-index="229" style="visibility: visible;"></path>
<path transform="translate(432,1029)" d="m0 0 7 4 1 3h-4l-1-2-1 3 3 1 1 7h2v2l5 1 3-2-1 4-2 3-4-2-4-4-4-9z" fill="#DBD7D8" data-index="230" style="visibility: visible; opacity: 1;"></path>
<path transform="translate(724,1270)" d="m0 0 5 2 2 5-5 3h-6l-1-1v-5z" fill="#E2E2E2" data-index="231" style="visibility: visible;"></path>
<path transform="translate(219,900)" d="m0 0 1 2v3 3l5 1-2 4-4 3h-4v-13z" fill="#1C183A" data-index="232" style="visibility: visible;"></path>
<path transform="translate(338,1270)" d="m0 0 5 1 3 4-1 4-9 1-1-1v-6z" fill="#E6E5E6" data-index="233" style="visibility: visible;"></path>
<path transform="translate(297,1061)" d="m0 0h2l8 16 4 11v2h-2l-4-8-1-5h-2l-5-14z" fill="#191439" data-index="234" style="visibility: visible;"></path>
<path transform="translate(790,1072)" d="m0 0 5 4 7 11v5l-3 1-5-10v-3h-2l-4-7z" fill="#DBD6D7" data-index="235" style="visibility: visible;"></path>
<path transform="translate(981,1134)" d="m0 0h12v2l-43 7-3-1 7-2h6v-2l10-1 4-1 7-1z" fill="#DBD8D9" data-index="236" style="visibility: visible;"></path>
<path transform="translate(1735,1074)" d="m0 0h1v23l-1 18-2 3v-26z" fill="#DBDCDC" data-index="237" style="visibility: visible;"></path>
<path transform="translate(540,961)" d="m0 0h6v4l-14 2-5-1-1-1h-7l4-2 15-1z" fill="#FCFCFC" data-index="238" style="visibility: visible;"></path>
<path transform="translate(822,1068)" d="m0 0 6 1-1 6 3 6 1 4 2 1v7l1 7-2-1v-5h-2l-3-12-5-12z" fill="#EEEDED" data-index="239" style="visibility: visible;"></path>
<path transform="translate(735,1039)" d="m0 0 17 1 4 1v2l-5 1-12-2h-10l-3 1h-7l1-2z" fill="#DCDDDD" data-index="240" style="visibility: visible;"></path>
<path transform="translate(591,958)" d="m0 0 8 2v1l-10 2-1 3-8 2-2-3h2l2-6z" fill="#DBDADA" data-index="241" style="visibility: visible;"></path>
<path transform="translate(1463,739)" d="m0 0h1v11h15l1 1v16h-1v-13l-15-1-1-2z" fill="#D7D5D5" data-index="242" style="visibility: visible;"></path>
<path transform="translate(1864,1044)" d="m0 0h16v1l-20 4-11 2-4 1 4-4z" fill="#696B6D" data-index="243" style="visibility: visible;"></path>
<path transform="translate(368,1265)" d="m0 0 7 1 3 1-1 4v-2h-2l-1 3h-9l-2-1v-3z" fill="#221F3F" data-index="244" style="visibility: visible;"></path>
<path transform="translate(316,1172)" d="m0 0h4v8l-1 2 3 1-6 2v-5l-5 1 2-7z" fill="#E0E0E0" data-index="245" style="visibility: visible;"></path>
<path transform="translate(986,1132)" d="m0 0 3 2-7 1v1l-11 1-6 2-5-1v2l-10 1 1-3h7l6-2z" fill="#656769" data-index="246" style="visibility: visible;"></path>
<path transform="translate(1182,1204)" d="m0 0 10 3h32l4 2-20 1v1h-9l-14-4z" fill="#DBD6D7" data-index="247" style="visibility: visible;"></path>
<path transform="translate(756,1007)" d="m0 0 10 1 6 3 6 2v3l-7-1-7-2-6-3v-2z" fill="#DBD6D7" data-index="248" style="visibility: visible;"></path>
<path transform="translate(1750,936)" d="m0 0h3v2l7-1 1 2-2 2v-2l-6 4-4 4-4-1 2-6z" fill="#DBD9DA" data-index="249" style="visibility: visible;"></path>
<path transform="translate(401,972)" d="m0 0h9l6 4 2 4-8-5h-8l-14 3h-6l-1 4v-5l7-2 8-1z" fill="#DBD7D8" data-index="250" style="visibility: visible;"></path>
<path transform="translate(784,1270)" d="m0 0h4l-2 5-6 7-4 1 1-6 5-6z" fill="#F0EFEF" data-index="251" style="visibility: visible;"></path>
<path transform="translate(487,1084)" d="m0 0 7 1 8 7v5l-3-1v-2l-7-2-2-4-3-1z" fill="#F0F0F0" data-index="252" style="visibility: visible;"></path>
<path transform="translate(324,1188)" d="m0 0 2 1-3 4-5 2-1 2-5 1-4 2-2-3 13-8z" fill="#DBD6D7" data-index="253" style="visibility: visible;"></path>
<path transform="translate(503,1131)" d="m0 0 2 1 3 11 1 5 4 4-3 2-5-4-1-2v-10z" fill="#DBD6D7" data-index="254" style="visibility: visible; opacity: 1;"></path>
<path transform="translate(666,1066)" d="m0 0h2l-1 7-5 9h-2l-2 4 1-7 3-9z" fill="#140F36" data-index="255" style="visibility: visible;"></path>
<path transform="translate(679,1011)" d="m0 0 2 1-4 2v2l-8 4-5 3 1-5-2-2 10-4z" fill="#FDFDFD" data-index="256" style="visibility: visible;"></path>
<path transform="translate(475,900)" d="m0 0h2l12 22 2 4-1 4-3-6v-2h-2l-2-8h-2l-4-8-2-3z" fill="#1C183C" data-index="257" style="visibility: visible;"></path>
<path transform="translate(717,1265)" d="m0 0 2 1-5 8-1 3v15l-2-3-1-15-9-1v-1l9-1 1-3z" fill="#DBD7D8" data-index="258" style="visibility: visible;"></path>
<path transform="translate(501,1129)" d="m0 0 2 2 2 8-3 4h-3l-2-9 2-1v-3z" fill="#DBDADA" data-index="259" style="visibility: visible;"></path>
<path transform="translate(424,904)" d="m0 0 4 2v2h2v2h2l6 9 2 5-4-2-7-9-5-7z" fill="#DBD6D7" data-index="260" style="visibility: visible;"></path>
<path transform="translate(183,870)" d="m0 0 3 2-2 4-8 10h-2l2-6v-3z" fill="#F6F6F6" data-index="261" style="visibility: visible;"></path>
<path transform="translate(1679,748)" d="m0 0 8 1 8 3-1 2-9-3v2h-6v-2l-10 2h-5l2-2 6-2z" fill="#DBD7D8" data-index="262" style="visibility: visible;"></path>
<path transform="translate(1186,1203)" d="m0 0 31 3 1 2h-17l-14-3z" fill="#DBD9D9" data-index="263" style="visibility: visible;"></path>
<path transform="translate(1414,1182)" d="m0 0h1l1 11v12h-8l1-3h4v-10z" fill="#DBD6D7" data-index="264" style="visibility: visible;"></path>
<path transform="translate(444,1110)" d="m0 0 4 5 12 23-1 2-12-19-2-5-1-3z" fill="#DBD6D7" data-index="265" style="visibility: visible;"></path>
<path transform="translate(101,1099)" d="m0 0h1l1 9 1 2-1 2h2l1-2 1 10-1 4v-3h-2l-2-9h-2l-1-4 1-8z" fill="#DBD6D7" data-index="266" style="visibility: visible;"></path>
<path transform="translate(1426,1050)" d="m0 0 2 4-6 5-1 3-1 11-2-3v-14z" fill="#DBD9D9" data-index="267" style="visibility: visible;"></path>
<path transform="translate(1800,786)" d="m0 0h10l-3 2 2 4v3h-2l-1-3-4-2v-2h-27l-1 3v-4z" fill="#DBD9DA" data-index="268" style="visibility: visible;"></path>
<path transform="translate(364,1093)" d="m0 0 1 2 6 3v2h2v2l8 1 1 2-8 1-6-3-1-3-3-3z" fill="#DBDCDC" data-index="269" style="visibility: visible;"></path>
<path transform="translate(1025,764)" d="m0 0h1v47h-1l-1-37-2-1 1-5z" fill="#DBDBDB" data-index="270" style="visibility: visible;"></path>
<path transform="translate(1509,749)" d="m0 0h14l7 2-3 1-6-1v2h-19l1-2z" fill="#DBD6D7" data-index="271" style="visibility: visible;"></path>
<path transform="translate(443,700)" d="m0 0 2 1-11 8-9 5-1-5z" fill="#46445A" data-index="272" style="visibility: visible;"></path>
<path transform="translate(344,1164)" d="m0 0v3l-4 5-2 4h-2l-1 3-5 3v-3l-2-1 10-8z" fill="#DBD6D7" data-index="273" style="visibility: visible;"></path>
<path transform="translate(218,1013)" d="m0 0 1 2h3v-2h6v3l2 1-29 1 2-2 15-1z" fill="#FDFDFD" data-index="274" style="visibility: visible;"></path>
<path transform="translate(534,1172)" d="m0 0 5 1v2l4 1 2 2 4 2 3 2-2 1-3-1v-2l-8-1-8-4z" fill="#DBDCDC" data-index="275" style="visibility: visible;"></path>
<path transform="translate(368,1129)" d="m0 0 4 3-1 10-2-3-4 3 1-6-2-1 1-4h3z" fill="#DBD9D9" data-index="276" style="visibility: visible;"></path>
<path transform="translate(1817,1109)" d="m0 0h1l1 26-2 4h-1v-24z" fill="#DBDADA" data-index="277" style="visibility: visible;"></path>
<path transform="translate(628,979)" d="m0 0h5l-5 6-8 2-2-1-4-1 8-2 1-2 2 1v-2z" fill="#DBDBDB" data-index="278" style="visibility: visible;"></path>
<path transform="translate(689,1048)" d="m0 0v3h-2l-2 5v2l-7 3-1 3-3-1 3-5 10-9z" fill="#ddd" data-index="279" style="visibility: visible;"></path>
<path transform="translate(1719,973)" d="m0 0v3l-10 10-2 7-4 1 1-6 3-4h2l1-3 7-6z" fill="#B3B1B2" data-index="280" style="visibility: visible;"></path>
<path transform="translate(1820,1166)" d="m0 0h1l-1 27-1 13h-1v-37z" fill="#DBD7D8" data-index="281" style="visibility: visible;"></path>
<path transform="translate(516,1164)" d="m0 0 5 1 1 3 8 1-2 2 2 1v2l-10-3-2-2-3-4z" fill="#DCDCDC" data-index="282" style="visibility: visible;"></path>
<path transform="translate(1077,749)" d="m0 0h14l4 2-8 2h-17l4-3z" fill="#DBD6D7" data-index="283" style="visibility: visible;"></path>
<path transform="translate(1824,1009)" d="m0 0h3l-1 23-3 3z" fill="#656769" data-index="284" style="visibility: visible;"></path>
<path transform="translate(1819,1066)" d="m0 0h1l1 13v10l-3 1v-20z" fill="#DBDADA" data-index="285" style="visibility: visible;"></path>
<path transform="translate(1540,1051)" d="m0 0h2l-1 5-8 8-1-1 1-7z" fill="#DBD9D9" data-index="286" style="visibility: visible;"></path>
<path transform="translate(352,1006)" d="m0 0 1 2 4 2 3 3h-3l7 6-3 1-10-9-2-1 1-2z" fill="#DEDFDF" data-index="287" style="visibility: visible;"></path>
<path transform="translate(510,1185)" d="m0 0 9 1 9 4 6 2-1 2-25-7z" fill="#221E40" data-index="288" style="visibility: visible;"></path>
<path transform="translate(169,1049)" d="m0 0m-2 1 2 1-10 10-8 11-4 4 2-5 8-11z" fill="#DBD9DA" data-index="289" style="visibility: visible;"></path>
<path transform="translate(730 1e3)" d="m0 0 5 2v2l-2 1-10 1-4-2 4-1v-2z" fill="#DBD6D7" data-index="290" style="visibility: visible;"></path>
<path transform="translate(1e3 992)" d="m0 0 2 2 1 5-3 2h-3l-1 6-3-1 2-6z" fill="#DBD9DA" data-index="291" style="visibility: visible;"></path>
<path transform="translate(700,962)" d="m0 0 2 3 1 4 4-1-2 8 2 1h-2l1 7h-6l4-3-4-15z" fill="#DBD6D7" data-index="292" style="visibility: visible;"></path>
<path transform="translate(491,1134)" d="m0 0h7v6l-5 3-2-2z" fill="#FDFDFD" data-index="293" style="visibility: visible;"></path>
<path transform="translate(1227,1058)" d="m0 0 3 1-3 2-1 3-8 8-5 4 2-4 4-7z" fill="#656769" data-index="294" style="visibility: visible;"></path>
<path transform="translate(747,1275)" d="m0 0 1 2-2 15-2 3v-19z" fill="#201353" data-index="295" style="visibility: visible;"></path>
<path transform="translate(289,1073)" d="m0 0 4 5 5 15v5h-2l-4-15-3-6z" fill="#211C41" data-index="296" style="visibility: visible;"></path>
<path transform="translate(394,1032)" d="m0 0 2 4v11l-5-1v-7h2z" fill="#FDFDFD" data-index="297" style="visibility: visible;"></path>
<path transform="translate(239,818)" d="m0 0h8l-5 5-5 4-3-1v-3h2l1-4z" fill="#E9E9E9" data-index="298" style="visibility: visible;"></path>
<path transform="translate(1208,1073)" d="m0 0 4 1-3 3v2h-2l-1 4-4 8h-1l1-7z" fill="#DBD9DA" data-index="299" style="visibility: visible;"></path>
<path transform="translate(528 1e3)" d="m0 0 8 6 9 8-2 1-6-3-5-6-4-3z" fill="#3A335B" data-index="300" style="visibility: visible;"></path>
<path transform="translate(691,1267)" d="m0 0h1l1 33h-5l1-5h2z" fill="#DBD7D8" data-index="301" style="visibility: visible;"></path>
<path transform="translate(1143,1204)" d="m0 0h9l-2 2-10 2h-10l1-2z" fill="#656769" data-index="302" style="visibility: visible;"></path>
<path transform="translate(314,1154)" d="m0 0 1 4-2 5-2 1 1 2-3 3-3-1v-2h2l1-4z" fill="#DBDBDB" data-index="303" style="visibility: visible;"></path>
<path transform="translate(486,1109)" d="m0 0 3 4 2 5 5 7 2 7h-2l-8-15-3-7z" fill="#DBDCDC" data-index="304" style="visibility: visible;"></path>
<path transform="translate(322,955)" d="m0 0h10l5 2-1 2h-7l-2-1-1 2v-2l-6-1z" fill="#F9F9F9" data-index="305" style="visibility: visible;"></path>
<path transform="translate(469,1097)" d="m0 0 4 4 1 4h2l2 7 3 1 1 3-2 2-11-19z" fill="#DBD6D7" data-index="306" style="visibility: visible;"></path>
<path transform="translate(1438,1049)" d="m0 0v3l-10 7-5 3 2-4 4-2 2-4z" fill="#656769" data-index="307" style="visibility: visible;"></path>
<path transform="translate(662,951)" d="m0 0 4 2-3 3-12 2 1-3 7-1v-2z" fill="#DBD6D7" data-index="308" style="visibility: visible;"></path>
<path transform="translate(322,861)" d="m0 0 1 2 7 1v1h-7l-3-1-3 3h-7l1-3z" fill="#FDFDFD" data-index="309" style="visibility: visible;"></path>
<path transform="translate(248,969)" d="m0 0h3v2l-14 5-2 2-5-1 3-2z" fill="#EEEDED" data-index="310" style="visibility: visible;"></path>
<path transform="translate(651,1257)" d="m0 0h6l-4 2-4 5 5 5-2 1-5-4 1-7z" fill="#DCDADB" data-index="311" style="visibility: visible;"></path>
<path transform="translate(376,1034)" d="m0 0 5 1 1 6-13-2-1-2h7z" fill="#DBDCDC" data-index="312" style="visibility: visible;"></path>
<path transform="translate(1530,1023)" d="m0 0h3l3 9-3 3h-2z" fill="#D0CDCE" data-index="313" style="visibility: visible;"></path>
<path transform="translate(798,861)" d="m0 0 4 1-5 5-3 2 1-4-8 3-3-1z" fill="#DBD9D9" data-index="314" style="visibility: visible;"></path>
<path transform="translate(448,696)" d="m0 0h3l-2 4-5 2h-3l-8 4-2-1z" fill="#DBD8D9" data-index="315" style="visibility: visible;"></path>
<path transform="translate(752,1016)" d="m0 0 14 2 1 3-11-1-5-1z" fill="#F2F1F1" data-index="316" style="visibility: visible; opacity: 1;"></path>
<path transform="translate(1189,749)" d="m0 0h12l5 1v1l-18 1-7 1 2-2z" fill="#DBD6D7" data-index="317" style="visibility: visible;"></path>
<path transform="translate(603,1181)" d="m0 0 4 2 10 8 6 5h-3l-11-8v-2l-4-1z" fill="#DBD6D7" data-index="318" style="visibility: visible;"></path>
<path transform="translate(1286,1174)" d="m0 0 2 1v5l-4 3h-3l1-5z" fill="#DCDCDD" data-index="319" style="visibility: visible;"></path>
<path transform="translate(817,1165)" d="m0 0 2 1-1 5-4 4h-2l-2 4-3 1 2-4z" fill="#DBDADB" data-index="320" style="visibility: visible;"></path>
<path transform="translate(643,1155)" d="m0 0 4 2 1 3 2 1-1 5-3-1-3-7z" fill="#DEDFDF" data-index="321" style="visibility: visible;"></path>
<path transform="translate(795,864)" d="m0 0 2 1-9 9-2-5 1-2z" fill="#443F5E" data-index="322" style="visibility: visible;"></path>
<path transform="translate(894,1188)" d="m0 0 2 3-2 7h-3l-1-2-2 1 2-5z" fill="#DDDEDE" data-index="323" style="visibility: visible;"></path>
<path transform="translate(133,1059)" d="m0 0h4l-1 5-3 4-4-2 2-4 1-1z" fill="#F7F7F7" data-index="324" style="visibility: visible;"></path>
<path transform="translate(1882,1042)" d="m0 0 4 2 1 2-18 2h-5l4-2 14-2z" fill="#DBD8D8" data-index="325" style="visibility: visible;"></path>
<path transform="translate(1781,749)" d="m0 0h12l4 2-6 1h-13l-5 1 1-2z" fill="#DBD7D8" data-index="326" style="visibility: visible;"></path>
<path transform="translate(1152,1202)" d="m0 0 2 1-1 4-12 2h-7v-1l16-3-2-2z" fill="#DBD8D9" data-index="327" style="visibility: visible;"></path>
<path transform="translate(722,1289)" d="m0 0 5 2v2l5-1-2 2-6 1-5-3v-2z" fill="#ddd" data-index="328" style="visibility: visible;"></path>
<path transform="translate(665,1264)" d="m0 0 1 4v3 6l-5-4-4-2 4-1 2-4 2 1z" fill="#DDDCDC" data-index="329" style="visibility: visible;"></path>
<path transform="translate(397,1091)" d="m0 0 3 1-1 3 1 4h-5l-3-3v-2h4z" fill="#FBFAFA" data-index="330" style="visibility: visible; opacity: 1;"></path>
<path transform="translate(430,989)" d="m0 0 4 2 5 5 6 7 1 2-4-2-7-7z" fill="#DBD8D9" data-index="331" style="visibility: visible;"></path>
<path transform="translate(1259,751)" d="m0 0h5l-4 2-3 1-3 4-4-1v-5z" fill="#DBD7D8" data-index="332" style="visibility: visible;"></path>
<path transform="translate(657,1139)" d="m0 0 3 1 4 9-1 4-5-8z" fill="#1E183F" data-index="333" style="visibility: visible;"></path>
<path transform="translate(481,1010)" d="m0 0 5 1 5 3 1 2h-4v-2l-3 1 1 2-4-2z" fill="#FDFDFD" data-index="334" style="visibility: visible;"></path>
<path transform="translate(1006,995)" d="m0 0 3 4-2 7-4 1-1-3 3-5z" fill="#686A6C" data-index="335" style="visibility: visible;"></path>
<path transform="translate(194,858)" d="m0 0 3 3-2 4-4 2-1-5z" fill="#F8F7F7" data-index="336" style="visibility: visible;"></path>
<path transform="translate(1644,1180)" d="m0 0h1l1 21-2 2-1-2z" fill="#DBD9D9" data-index="337" style="visibility: visible;"></path>
<path transform="translate(436,1120)" d="m0 0 3 1-2 1v2h2v3l3 1 1 5-4-2-4-6z" fill="#DBD6D7" data-index="338" style="visibility: visible;"></path>
<path transform="translate(1063,1115)" d="m0 0 2 2 1 5h-15l1-2 11-1z" fill="#656769" data-index="339" style="visibility: visible;"></path>
<path transform="translate(164,1089)" d="m0 0h2l-1 5h-2l-1 5-3-1v-5h2v-2z" fill="#ECECEC" data-index="340" style="visibility: visible;"></path>
<path transform="translate(1820,1024)" d="m0 0h3l1 8-2 4h-2z" fill="#E4E2E3" data-index="341" style="visibility: visible;"></path>
<path transform="translate(735 1e3)" d="m0 0 12 1 1 2-4 1h-7z" fill="#DBD6D7" data-index="342" style="visibility: visible;"></path>
<path transform="translate(500,1008)" d="m0 0h2v2l7-1 1 3h-4l-1 3-4-2z" fill="#DBD6D7" data-index="343" style="visibility: visible;"></path>
<path transform="translate(131,946)" d="m0 0 3 1-1 7h-4l-2 1 2-6z" fill="#F6F5F5" data-index="344" style="visibility: visible;"></path>
<path transform="translate(285,873)" d="m0 0h5l-4 3-10 5-3-1 4-3z" fill="#EFEEEE" data-index="345" style="visibility: visible;"></path>
<path transform="translate(583,1213)" d="m0 0 5 3 5 6-6-2-6-4 2-1z" fill="#4B4861" data-index="346" style="visibility: visible;"></path>
<path transform="translate(104,1127)" d="m0 0 2 1 3 9-1 4-2-3-3-10z" fill="#DBDBDB" data-index="347" style="visibility: visible;"></path>
<path transform="translate(649,1067)" d="m0 0 2 1-6 15-1 3-2-1 4-13z" fill="#DBDADA" data-index="348" style="visibility: visible;"></path>
<path transform="translate(1849,1050)" d="m0 0h7l-2 2-16 6-3-1 13-6z" fill="#DBD8D8" data-index="349" style="visibility: visible;"></path>
<path transform="translate(1575,1042)" d="m0 0 7 2 2 1-1 2h-11v-2h3z" fill="#DBD8D8" data-index="350" style="visibility: visible;"></path>
<path transform="translate(107 1e3)" d="m0 0h3l-1 8-4-1v-5z" fill="#DBD6D7" data-index="351" style="visibility: visible;"></path>
<path transform="translate(1601,791)" d="m0 0 7 3 15 1-4 2h-7l-9-2z" fill="#DBD8D8" data-index="352" style="visibility: visible;"></path>
<path transform="translate(494,1252)" d="m0 0 5 1-1 5-4 1-1-5z" fill="#302E48" data-index="353" style="visibility: visible;"></path>
<path transform="translate(898,1180)" d="m0 0 2 1-2 7-1 2-4-1 2-5z" fill="#DBD9D9" data-index="354" style="visibility: visible;"></path>
<path transform="translate(615,1068)" d="m0 0 2 3 4-1-2 5-4 2-1-5z" fill="#DBDCDC" data-index="355" style="visibility: visible;"></path>
<path transform="translate(522,1052)" d="m0 0 4 2 4 4-5 1-2-1v-2h-2z" fill="#DBD6D7" data-index="356" style="visibility: visible;"></path>
<path transform="translate(1717,750)" d="m0 0h13l1 2-8 1-2-1v2l-4-1z" fill="#DBD6D7" data-index="357" style="visibility: visible;"></path>
<path transform="translate(1126,742)" d="m0 0h1v9l-1 3h-2v-3l-6 3 2-4 6-1z" fill="#DBD8D8" data-index="358" style="visibility: visible;"></path>
<path transform="translate(779,1025)" d="m0 0 7 1v2h2v2l2 1-7-1-4-3z" fill="#F6F6F6" data-index="359" style="visibility: visible;"></path>
<path transform="translate(1418,1006)" d="m0 0h1l1 26h-3z" fill="#656769" data-index="360" style="visibility: visible;"></path>
<path transform="translate(642,1258)" d="m0 0 3 3v5h-2v5l-2-2v-9z" fill="#3D375C" data-index="361" style="visibility: visible;"></path>
<path transform="translate(119,1167)" d="m0 0 3 3 2 3 3 2-1 4-3-1-4-9z" fill="#DBD9DA" data-index="362" style="visibility: visible;"></path>
<path transform="translate(775,1100)" d="m0 0 2 1 2 6v6l-2 1-2-10z" fill="#DBDCDC" data-index="363" style="visibility: visible;"></path>
<path transform="translate(410,1050)" d="m0 0 3 1-3 9-2 8h-1l1-9z" fill="#DDDADA" data-index="364" style="visibility: visible;"></path>
<path transform="translate(447,1046)" d="m0 0 1 3-3 4-4-2-1-4 5 1z" fill="#DBDCDC" data-index="365" style="visibility: visible;"></path>
<path transform="translate(461,996)" d="m0 0h5l3 4-3 1 2 3-4-1z" fill="#DBDBDB" data-index="366" style="visibility: visible;"></path>
<path transform="translate(332,989)" d="m0 0 5 3-1 3 2 1h-4l-2-1v-2h-2l1-3z" fill="#DEDFDF" data-index="367" style="visibility: visible;"></path>
<path transform="translate(719,878)" d="m0 0 7 1-1 2-5 2h-3l-1-3z" fill="#DBD6D7" data-index="368" style="visibility: visible;"></path>
<path transform="translate(283,817)" d="m0 0m-2 1 2 1-7 7-1 2h-3l-1 3-1-3z" fill="#EFEEEE" data-index="369" style="visibility: visible;"></path>
<path transform="translate(498,1257)" d="m0 0 1 2v6h-6l1-6z" fill="#DEDDDD" data-index="370" style="visibility: visible;"></path>
<path transform="translate(409,1251)" d="m0 0 3 1v7l-4-1v-6z" fill="#302C49" data-index="371" style="visibility: visible;"></path>
<path transform="translate(1313,1205)" d="m0 0h5l4 3-13 1-1-3z" fill="#E2E1E1" data-index="372" style="visibility: visible;"></path>
<path transform="translate(1414,1182)" d="m0 0h1l1 13-1 7h-1l-1-10z" fill="#DBDBDB" data-index="373" style="visibility: visible;"></path>
<path transform="translate(830,1085)" d="m0 0 3 1v7l1 7-2-1v-5h-2z" fill="#F7F6F6" data-index="374" style="visibility: visible;"></path>
<path transform="translate(128,1070)" d="m0 0 2 2-1 7-2 3v-7l-3 1 2-4z" fill="#F4F4F4" data-index="375" style="visibility: visible;"></path>
<path transform="translate(926,1138)" d="m0 0 4 1-1 3-5 1-2 1 1-5z" fill="#DBD8D9" data-index="376" style="visibility: visible;"></path>
<path transform="translate(592,1220)" d="m0 0 4 2 3 3v2l-5-2-5-3z" fill="#D6D5D6" data-index="377" style="visibility: visible;"></path>
<path transform="translate(1061,1114)" d="m0 0 2 1-1 3h-11l2-2z" fill="#DBDADB" data-index="378" style="visibility: visible;"></path>
<path transform="translate(267,1066)" d="m0 0 1 2h2l2 3v4h-2l-5-7z" fill="#DBD6D7" data-index="379" style="visibility: visible;"></path>
<path transform="translate(735,1039)" d="m0 0m-11 1h11l-4 2-5 1h-7l1-2z" fill="#DBDCDC" data-index="380" style="visibility: visible;"></path>
<path transform="translate(584,963)" d="m0 0h5l-1 3-8 2-2-3 4-1 2 1z" fill="#DBDCDC" data-index="381" style="visibility: visible;"></path>
<path transform="translate(485,916)" d="m0 0 3 4 3 6-1 4-3-6v-2h-2l-1-4z" fill="#201C3D" data-index="382" style="visibility: visible;"></path>
<path transform="translate(1237,750)" d="m0 0h11l-4 3-8 1z" fill="#DBD7D8" data-index="383" style="visibility: visible;"></path>
<path transform="translate(689,1196)" d="m0 0 5 2 6 3-4 1h-4z" fill="#E0DFDF" data-index="384" style="visibility: visible;"></path>
<path transform="translate(501,1158)" d="m0 0 4 2 5 2-3 2-7-3-6-1v-1z" fill="#DBD6D7" data-index="385" style="visibility: visible;"></path>
<path transform="translate(628,1084)" d="m0 0 1 4 1 2-3 6-2-4v-3h2z" fill="#DBD6D7" data-index="386" style="visibility: visible;"></path>
<path transform="translate(1853,1047)" d="m0 0 4 1-1 2-7 1-4 1 4-4z" fill="#777879" data-index="387" style="visibility: visible;"></path>
<path transform="translate(432,1029)" d="m0 0 7 4 1 3h-4l-1-2-2 1z" fill="#DBDBDB" data-index="388" style="visibility: visible;"></path>
</svg>