<?xml version="1.0" encoding="UTF-8"?>
<svg version="1.1" viewBox="0 0 2048 901" width="185" height="50" xmlns="http://www.w3.org/2000/svg">
<path transform="translate(454,28)" d="m0 0h84l25 3 42 8 28 8 30 11 20 9 21 10 21 12 17 11 18 13 14 11 11 10 8 7 10 10 8 7 16 17 11 14 13 17 16 24 9 15 14 27 9 20 11 31 7 24 7 32 4 28 1 12v81l-4 31-5 25-8 29-7 20-10 24-14 29-15 26-7 10-10 15-14 18-13 16-14 15-12 12h-2v2l-8 7-11 9-13 10-11 8-15 10-15 9-18 10-26 13-24 10-36 12-28 7-22 4-20 2h-92l-24-2-24-4-28-7-33-11-28-12-22-11-21-12-27-18-19-14-13-11-24-22-7-8-13-14-9-11-14-18-17-26-11-19-14-27-9-21-7-20-9-28-7-32-5-35-1-15v-56l1-17 5-34 8-36 12-36 15-34 10-19 10-18 13-20 13-18 13-16 11-12 9-10 32-32 8-7 15-12 26-17 17-10 23-12 23-10 19-7 27-9 32-8 34-6zm50 14-20 2-26 6-50 14-33 10-42 13-30 10-25 11-21 11-12 8-13 10-10 9-15 14-17 17-7 8-13 15-12 16-13 20-12 21-9 17-11 25-11 30-8 28-6 27-4 31-2 26v33l3 32 4 26 9 38 11 32 8 20 14 29 16 27 12 18 12 16 12 14 12 13 9 10 12 11 15 14 17 13 18 13 26 16 29 15 20 9 25 9 21 5 10 1h212l20-4 25-9 26-12 25-13 20-12 20-14 12-9 10-8 12-11 2-4 8-6 8-8 4-3v-2l-4-4-2-9 9 2 2 2v5l7-6 9-11 13-16 12-17 11-17 12-22 8-16 11-26 8-22 8-30 5-25 4-28 2-23v-40l-3-34-6-35-8-31-9-26-10-24-14-29-14-24-8-12-12-17-11-13-7-8-9-10-12-13-8-7-8-8-11-9-15-12-17-12-22-14-18-10-24-12-27-11-28-9-25-6-26-5-14-2-35-2z" fill="#003495"/>
<path transform="translate(1105,371)" d="m0 0h19l26 4 26 7 31 11 12 6 1 1-1 9-16 48-4-1-12-11-11-9-17-13-13-8-12-6-13-4-5-1h-17l-13 5-8 6-5 7-4 12-1 5v10l3 9 4 6 2 4 4 2 7 6 19 12 19 11 20 11 17 10 22 14 13 10 10 9 8 9 7 12 3 12v10l-3 16-5 14-7 11-11 12-10 8-16 8-19 5-33 5h-8l-22-4-15-5-15-8-10-7-10-8-13-12-11-12-9-12-10-14-5-10 5 2 20 13 14 8 16 8 21 9 15 5 23 4h19l16-4 9-7 6-9 4-10v-8l-5-10-9-8-18-12-32-19-16-10-11-7-16-11-10-8-10-9-12-12-7-11-4-9-1-5v-8l3-13 7-16 9-14 9-10 9-8 14-9 15-7 22-6z" fill="#1E0A4E"/>
<path transform="translate(705,419)" d="m0 0h9l3 5 2 7-1 5-5 3-18 5-20 8-18 10-12 9-8 7-7 8-8 10-9 17-5 15-2 9v20l3 19 5 15 6 11 8 10 7 8 8 7 14 11 13 8 23 12 12 7 4 4-5 1h-39l-11-4-13-9-16-12-16-13-9-7-10-8-15-13-15-14-8-7-11-10-11-9-13-12-11-9-8-7-4-2-5 1-11 5-6 2 3 9 9 15 14 26 1 5-18 11-3-1-15-28-14-25-10-17-8-16-8-13-4-2-4 18-7 22-4 2-8-3-12-7-14-9-8-4 4 32v33l-3 13-8 15-8 11-8 7-8 1-1-3 8-26 3-17 1-15v-11l-2-21-6-21-9-19-10-15-9-11-7-7-4-5-4-3v-2l-4-2-4-4 1-4 13-13 3-1 8 7 28 28 8 7 7 7 13 10 20 13 11 5 6-1 6-8v-19l-4-20-8-25 1-5 1-1 11-2h10l10 6 10 9 8 7 12 11 11 9 10 9 11 9 12 11 11 9 11 10 11 9 14 13 8 7 11 9 6 4 1-16 4-25 6-20 8-16 10-14 11-12 12-10 11-7 21-11 33-11zm-267 61-1 5 6 16 6 11 5 3 6-4 4-6-3-6-8-10-8-7z" fill="#B4201E"/>
<path transform="translate(1470,458)" d="m0 0h23l16 3 16 7 16 10 10 8 12 11 8 10 9 15 5 12 4 15 1 16-2 18-4 15-6 14-10 15-9 10-7 7-16 11-10 6-15 6-13 3-6 1h-23l-16-3-16-6-16-9-13-11-6-5-7-8-10-14-7-15-5-17-1-6v-26l4-16 5-12 8-14 10-13 7-7 8-7 13-9 15-8 15-5zm-8 25-12 4-8 6-6 8-5 12-2 9-1 13v30l3 18 6 18 8 16 8 10 10 10 11 7 8 3h18l11-4 6-4 5-4 6-10 4-13 2-22v-11l-2-25-3-16-6-15-7-12-9-10-8-7-16-8-11-3z" fill="#1E0A4E"/>
<path transform="translate(1821,458)" d="m0 0h26l17 3 16 6 15 8 16 12 10 10 10 15 7 15 5 16 2 9 1 16-4 3-46 5-34 4-37 4-36 5-1 4 6 13 6 10 10 11 14 9 19 9 25 9 25 7 28 6 8 3v3h-12l-45-2-37-4-26-5-17-5-17-8-11-8-10-10-9-14-5-14-3-15-1-20 1-16 4-20 6-16 5-10 10-14 11-12 10-8 14-8 16-5zm5 25-10 3-10 6-6 7-6 12-4 15-3 34v23l7-1 55-25 26-11 9-6 1-7-4-14-8-15-10-11-12-7-12-3z" fill="#1F0A4E"/>
<path transform="translate(1322,397)" d="m0 0h3l1 2v16l-4 51 11-1 15-5 5-1h10l2 7v31l-2 6-1 1h-42l-1 7-2 55-1 17v36l3 11 3 5 5 2 12 1 13-3 11-6h3l1 7-6 8-11 11-11 8-12 7-12 2h-8l-10-2-9-6-7-11-4-9-4-17-3-31-2-78v-13l-30-1-7-1-1-3 7-10 12-13 9-10 14-15 7-8 10-11 7-8 11-12 7-8z" fill="#1E0A4E"/>
<path transform="translate(363,283)" d="m0 0h28l16 3 14 5 15 8 14 11 19 19 11 15 9 15 9 16 8 16h17l52-6 36-6 33-6 37-9 32-9 44-15 28-11 22-9 5 1-2 4-7 6-13 10-30 18-16 8-21 9-19 7-28 8-40 9-49 9-49 7-33 2h-14l-5-3-5-12-8-15-11-17-9-12-11-13-9-9-13-10-14-8-17-6-11-2-13-1h-17l-17 2-15 4-17 6-23 11-21 13-18 12-13 9-4-1 1-7 7-8 9-8 13-10 16-11 15-10 22-12 19-8 21-6z" fill="#1F0A4E"/>
<path transform="translate(1733,458)" d="m0 0h8l4 3 1 6v28l-1 11-1 1h-7l-20-4h-17l-29 6h-2l-1 12-3 113-1 31-7 2-20 1h-16l-2-6-4-42-8-123-1-20v-15l1-1 61 1 1 1v31l10-7 12-10 17-10 15-7z" fill="#1F0A4E"/>
<path transform="translate(453,150)" d="m0 0h2l-1 3-29 19-25 16-37 25-20 14-18 13-26 20-15 13-13 11-13 12-11 11-7 8-10 11-9 11-8 11-12 19-11 22-7 21-2 10-1 10-4 4-12 5-36 12h-4l-1-4 11-32 10-21 11-19 11-16 11-14 9-10 9-11 15-15 8-7 14-13 11-9 14-12 16-12 17-12 15-10 24-15 29-17 21-12 26-14 24-14 16-8z" fill="#1F0A4E"/>
<path transform="translate(214,476)" d="m0 0h19l17 3 13 5 15 8 9 7 10 9 9 12 8 16 5 15 2 12v18l-3 17-6 15-9 15-11 12-10 9-14 9-12 5-13 4-16 2h-9l-16-2-16-5-16-8-11-8-10-10-10-14-7-15-5-17-1-8v-24l4-17 8-17 10-14 12-12 15-10 13-6 13-4zm-7 13-16 4-12 6-11 8-12 12-8 14-5 12-3 12-1 8v13l3 17 5 14 9 14 11 12 12 9 15 7 11 3 7 1h24l14-3 16-8 9-6 10-9 6-7 6-10 5-11 4-21v-17l-4-19-6-14-7-10-9-10-12-9-16-8-9-3-6-1z" fill="#200B4F"/>
<path transform="translate(742,476)" d="m0 0h23l16 3 13 5 13 7 11 8 9 8 9 13 8 16 4 13 2 13v24l-3 14-6 15-9 14-9 10-9 9-10 7-14 7-15 5-14 2h-20l-13-2-7-3-19-10-13-9-9-8-9-13-9-19-4-14-1-7v-28l4-16 8-16 6-9 9-10 8-8 13-9 15-7 15-4zm0 13-16 3-12 5-13 8-9 8-10 13-7 14-4 13-1 7v23l4 16 5 12 9 13 13 13 10 7 17 8 13 3h25l14-3 16-7 10-7 10-9 6-7 6-10 7-16 3-17v-16l-3-16-6-15-7-11-12-12-15-10-13-6-12-3-10-1z" fill="#200B4F"/>
<path transform="translate(301,385)" d="m0 0h56l25 3 26 6 21 6 24 9 18 8 22 12 13 7 22 14 16 12 9 7 11 10v2l-4-1-11-7-24-14-23-12-24-11-37-13-22-6-32-6-19-2h-49l-26 4-25 6-24 8-12 5-5-1-12-17-4-5-2-5 23-7 43-9z" fill="#1F0A4E"/>
<path transform="translate(449,623)" d="m0 0h26l23 3 23 6 25 10 23 12 17 11 11 8 2 3-9-3-23-11-20-8-22-7-28-5-10-1h-33l-21 3-21 5-20 7-25 12-21 10-6-1-9-9v-3l10-7 16-9 24-11 21-7 29-6z" fill="#200A4D"/>
<path transform="translate(1051,180)" d="m0 0h9l3 2v13l1 10 1 31v24l-2 2h-8l-3-3-1-32-1-14-7 12-11 33-3 3-5 1-4-2-5-10-14-43-2-5-2-8-3-6 2 12 3 56-1 5h-11l-2-5v-26l1-32 1-17h12l4 2 4 10 14 43 3 5v2l3-3 6-15 14-37z" fill="#441D5C"/>
<path transform="translate(1363,180)" d="m0 0h8l3 3 13 34 6 20 8 21v3l-2 1h-10l-3-3-3-12-1-1-30-2-4 8-3 7-3 2h-9l1-7 12-36 10-27 5-9zm3 11 1 9 1 3-5 1-4 11-4 17 3 1h16l5-2-5-19-4-9-3-12z" fill="#451C5B"/>
<path transform="translate(1649,181)" d="m0 0h10l10 3 6 5 4 9 1 10h-3l-8-7-8-6-2-1h-15l-6 5-4 8-2 8v19l4 10 6 4 3 1h15l7-3 8-7 2-2 5 1 2 1-3 9-9 10-8 3-6 1h-10l-10-2-9-6-7-9-3-8-1-14 2-13 5-12 9-10 7-5z" fill="#461D5C"/>
<path transform="translate(1824,203)" d="m0 0h12l9 3 6 7 2 8v15l-32-1v-7l6-4h2v-2l4-1v2l9 1-6-10h-12l-4 2-3 9 1 9-3 3 1 5 4 4 7 2h8l9-2 6-2 2-6 1 4-2 10-5 6-9 4-13 1-9-2-7-5-5-8-2-7v-9l4-13 6-9 6-5z" fill="#461E5C"/>
<path transform="translate(1217,204)" d="m0 0h13l11 4 7 8 3 7v15l-3 10-6 8-10 5-4 1h-17l-6-4-6-8-3-8-1-12 3-10 6-10 8-5zm0 10-5 3-3 6-1 4v12l4 8 5 3 10 1 8-4 4-8v-10l-3-9-5-5-2-1z" fill="#451C5B"/>
<path transform="translate(1103,204)" d="m0 0h14l10 3 5 5 4 8 1 4v14l-3 10-8 9-10 4-12 1-9-2-6-5-5-10-1-4v-15l4-11 7-8zm0 9-6 5-3 9v10l2 7 6 4 4 1h11l6-4 2-3v-15l-5-10-5-4z" fill="#461D5B"/>
<path transform="translate(1707,204)" d="m0 0h21l6 2 3 8v18l2 12 7 11v5l-4 2-10-1-1-2v-7l-7 8-7 2h-12l-7-2-4-8v-13l4-5 22-11 9-1-1-6-1-2h-7l-17 5h-5l-2-2 1-5 4-5zm21 27-17 5-5 3v7l3 5 4 3h9l4-5 4-10 1-7zm6 14 1 2zm-1 2 1 2zm-1 2 1 2z" fill="#441C5B"/>
<path transform="translate(1543,204)" d="m0 0h17l10 4 6 7 2 5v20l-3 9-4 6-8 5-7 2h-14l-8-4-6-9-3-10v-13l4-11 7-8zm4 9-6 3-3 4-2 12 1 10 4 6 6 3h10l6-3 4-6v-19l-3-6-5-4z" fill="#461D5B"/>
<path transform="translate(1161,190)" d="m0 0 4 1 3 3 1 9-3 7 5-5h9l5 4-1 5-1 1-12 1-1 2-1 10v10l1 9 14 1 2 5v6l-2 2-4 1h-13l-7-3-4-8-3-29-5-15 7-6 3-9z" fill="#451D5C"/>
<path transform="translate(1488,190)" d="m0 0 7 1 2 8-3 9 1 4 3-6 2-1h9l4 3-1 7-1 1-14-1v23l2 11 15-2v10l-4 4-4 1h-9l-7-3-4-5-2-7-2-27-5-9 1-5 5-2 2-11z" fill="#441C5B"/>
<path transform="translate(689,717)" d="m0 0 6 2 4 4 2 12-6 10v7l1 1h11l1-24 2-2h14l8 3 4-1 5-3 7 2 4 4 3 8v5l-2 2-4-1-5-5-3-10-3 2v20l2 1 9-1 4-1-1 6-5 2h-11l-6-4-2-6-1-14-3-3-4-1-2 3-3 20-2 3-12 3-7-1-5-8-1-4 1-2z" fill="#150526"/>
<path transform="translate(399,855)" d="m0 0h195v1l-23 4-49 3h-66l-31-2-18-3-8-2z" fill="#270E50"/>
<path transform="translate(1760,205)" d="m0 0h12l3 2 4-2h12l2 3v5l-4 5h-13l-3 3-1 5-1 34-2 2h-7l-2-2-1-8v-46z" fill="#461D5C"/>
<path transform="translate(1418,204)" d="m0 0 7 1 1 1v33l2 7 3 1h15l1 5-3 7-2 2-4 1h-16l-4-4-4-10-1-7v-35z" fill="#461D5B"/>
<path transform="translate(217,556)" d="m0 0h9l9 3 5 6v11l-5 8-5 3-8 2-9-3-6-7-2-5v-8l4-6z" fill="#1F0A4D"/>
<path transform="translate(748,556)" d="m0 0h8l9 3 5 6 1 7-3 9-5 5-7 3-8-1-7-4-5-8v-9l4-7z" fill="#1F0B4E"/>
<path transform="translate(1268,206)" d="m0 0h32l1 5-4 5-16 2-1 15v26l-3 2h-7l-3-3z" fill="#441B5A"/>
<path transform="translate(1723,222)" d="m0 0h6l-3 1-1 4-6 3h-3l1 5-10 4v7l3 5 3 2h9l5-8 2-2v5l4 1-9 11-7 2h-12l-7-2-4-8v-13l4-5 22-11z" fill="#461E5C"/>
<path transform="translate(1453,205)" d="m0 0h7l2 1 1 20v33l-2 2h-9l-2-3 1-51z" fill="#441B5A"/>
<path transform="translate(311,713)" d="m0 0 10 1 6 4v6l-1 2-3-1-5-5h-8l1 8 3 3 10 4 4 6 1 3v11l-3 5-3 1h-13l-6-3-2-4 1-7 7 6 5 2 6-3 3-4-11-10-8-3-2-3v-9l4-8z" fill="#170628"/>
<path transform="translate(666,714)" d="m0 0h9l6 3-2 4-2 1-5-1h-8l-1 2 3 7 12 6 5 7v4h3v3l-3 3-3 6-3 2h-12l-6-3-3-4v-7h3l5 6 7 1 8-3 2-3-5-2-10-8-9-5v-11l6-7z" fill="#160527"/>
<path transform="translate(507,439)" d="m0 0 5 1 16 10 16 12 9 7 11 10v2l-4-1-11-7-24-14-23-12-9-4v-2l3-1h9z" fill="#130525"/>
<path transform="translate(590,728)" d="m0 0 6 1 1 1 1 26 4 1 3-4 1-4 1-21h5l2 2 1 5v21l-3 4-3 1h-13l-5-3-2-6v-12z" fill="#150526"/>
<path transform="translate(453,150)" d="m0 0h2l-1 3-29 19-25 16-12 8-6 1-5-2v-4l28-15 24-14 16-8z" fill="#150527"/>
<path transform="translate(347,726)" d="m0 0 9 2 3 5 1 4v10l-5-1-3-4-3-12-3 4-2 8v10l2 4 5-1 4-2h5l1 2-2 4-9 2-9-1-6-8v-3l-3-1 2-1 3-15 5-5z" fill="#160628"/>
<path transform="translate(566,727)" d="m0 0h9l4 2 2 6 1 8v12l-4 5-4 1h-8l-6-4-3-6v-12l3-7 4-4zm1 6-3 3-1 4v12l2 3h6l5-5v-10l-3-6-1-1z" fill="#160527"/>
<path transform="translate(471,727)" d="m0 0 9 1 3 5 2 8v13l-2 5-2 1h-13l-8-7-3-4 4-14 2-5h3l2 7v13l-1 4h11l4-2v-5l-14-16-1-3z" fill="#170629"/>
<path transform="translate(539,640)" d="m0 0 5 1 25 13 17 11 11 8 2 3-9-3-23-11-30-12z" fill="#130424"/>
<path transform="translate(763,728)" d="m0 0h18l4 5 3 8v11l-4 4-3-1-2-7-2-12-3-3-4 1-1 2-1 17-2 6h-3l-1-2-1-9v-13z" fill="#120526"/>
<path transform="translate(415,856)" d="m0 0h164v1l-30 2h-115l-19-2z" fill="#0B011B"/>
<path transform="translate(376,727)" d="m0 0h11l4 3 1 3v11l-3 1-6-12-5-1-2 3-1 5-1 18h-4l-1-2-1-11v-13l1-4z" fill="#160527"/>
<path transform="translate(301,385)" d="m0 0h56l25 3 2 2h-23l-22-1-53-1 4-2z" fill="#120422"/>
<path transform="translate(524,728)" d="m0 0h13l1 2 2 13 1 8-3 7-2 2-10 1-12-1-1-4 4-2 5 3 6-2 5-6 2-4v-9l-9-6z" fill="#140525"/>
<path transform="translate(403,728)" d="m0 0 5 1v17l-3 9-5 4-5 1-2-5 7-12 2-14z" fill="#130423"/>
<path transform="translate(626,727)" d="m0 0h8l3 3-2 4-4 4-2 21-5 1-1-3 1-28z" fill="#140525"/>
<path transform="translate(420,727)" d="m0 0 4 1 3 12v12l-3 7-1 1h-5v-31z" fill="#140524"/>
<path transform="translate(682,743)" d="m0 0 1 4h3v3l-3 3-3 6-3 2h-12l-6-3-3-4v-7h3l5 6 7 1 8-3 2-3-2-1h3z" fill="#180729"/>
<path transform="translate(235,345)" d="m0 0h2l3 7v4l-16 11-4-1 1-7 7-8z" fill="#100321"/>
<path transform="translate(303,747)" d="m0 0 7 6 5 2 6-3 5-3 2 2v7l-5 3h-13l-6-3-2-4z" fill="#150525"/>
<path transform="translate(507,728)" d="m0 0 6 1-2 5-3 24h-5l-1-1v-16l2-12z" fill="#150526"/>
<path transform="translate(463,730)" d="m0 0h3l2 7v13l-1 4 9 1v1l-8 1-6-2-5-6 4-14z" fill="#120423"/>
<path transform="translate(1710,208)" d="m0 0h9v2l3 1v2l-15 5-9 1-2-2 1-4 4 1 5-5z" fill="#1F0B49"/>
<path transform="translate(436,728)" d="m0 0h16l1 4-8 5-9 3-2-4v-6z" fill="#140524"/>
<path transform="translate(434,742)" d="m0 0h1l1 7 5 4 12 1 1 2-3 4-3 1h-10l-4-4-2-10z" fill="#160627"/>
<path transform="translate(518,730)" d="m0 0h6l4 5v8l-4 4h-5l-1-2z" fill="#120422"/>
<path transform="translate(795,727)" d="m0 0h7l4 3-1 4-7 5-3-7z" fill="#1B082D"/>
<path transform="translate(483,751)" d="m0 0h1v6l-3 3h-13l-4-3v-2l6 1 8-2z" fill="#120422"/>
<path transform="translate(515,634)" d="m0 0 3 1 5 10h-8l-7-2 2-3h2l2-5z" fill="#0E021E"/>
<path transform="translate(524,728)" d="m0 0h13l1 2v9l-2 4-1-7-9-6z" fill="#1F0A31"/>
<path transform="translate(1695,237)" d="m0 0 5 1 2 3-1 4-2 3-5-1v-8z" fill="#210B4C"/>
<path transform="translate(1831,221)" d="m0 0h2v2l7 1v3l-2 1h-15l4-4h2v-2z" fill="#FDFDFD"/>
<path transform="translate(1801,582)" d="m0 0h7l1 1h16v1l-20 3h-8l4-1-1-3z" fill="#431B5A"/>
<path transform="translate(1726,223)" d="m0 0 4 1-2 5-4 4-7 1-1-4 9-4z" fill="#200B4E"/>
<path transform="translate(1355,647)" d="m0 0 2 1-7 7-11 8-7 4 2-4 6-4 7-6h3l1-3z" fill="#401C5E"/>
<path transform="translate(211,666)" d="m0 0h26l-3 2-7 1h-9l-7-1z" fill="#140524"/>
<path transform="translate(767,737)" d="m0 0h1v16l-2 6h-3l-1-2v-6l4 1v-14z" fill="#451B5A"/>
<path transform="translate(1791,210)" d="m0 0h2l-1 4-3 4h-8l2-4z" fill="#170628"/>
<path transform="translate(1731,237)" d="m0 0 3 1 1 5-2 5h-4v-9z" fill="#1F0B50"/>
<path transform="translate(411,413)" d="m0 0h11l9 5-4 1-14-4z" fill="#140526"/>
<path transform="translate(797,487)" d="m0 0 5 1 5 3v4l-5-1-5-5z" fill="#100424"/>
<path transform="translate(124,444)" d="m0 0 5 1 3 2-1 3-7 1-1-4z" fill="#160627"/>
<path transform="translate(515,754)" d="m0 0 6 2 2 3-1 1h-8l-1-4z" fill="#260D39"/>
<path transform="translate(373,742)" d="m0 0h1v16h-4l-1-2v-8l2 4 1 1z" fill="#431B5B"/>
<path transform="translate(211,403)" d="m0 0h6l-2 8h-3l-3-7z" fill="#130424"/>
<path transform="translate(1841,214)" d="m0 0 5 2 5 6-2 1-2-1v-2h-6l-1-2z" fill="#1E0A4E"/>
<path transform="translate(465,745)" d="m0 0h1v8l1 1 9 1v1l-8 1-6-2-1-2h2z" fill="#451B5A"/>
<path transform="translate(1353,459)" d="m0 0h10l1 4-13-2z" fill="#160627"/>
<path transform="translate(1791,582)" d="m0 0 5 1 1 4h-6l-1-4z" fill="#0F021F"/>
<path transform="translate(682,743)" d="m0 0 1 4h3v3l-4 3v-2l-2-1 1-2-2-1h3z" fill="#2F1142"/>
<path transform="translate(1831,221)" d="m0 0h2l2 6h-7l1-5z" fill="#758BBE"/>
<path transform="translate(510,752)" d="m0 0 2 1z" fill="#451B5A"/>
<path transform="translate(1819,229)" d="m0 0" fill="#451B5A"/>
</svg>
